<?xml version="1.0" encoding="utf-8"?>
<!-- Generator: Adobe Illustrator 23.0.1, SVG Export Plug-In . SVG Version: 6.00 Build 0)  -->
<svg version="1.1" id="Layer_1" xmlns="http://www.w3.org/2000/svg" xmlns:xlink="http://www.w3.org/1999/xlink" x="0px" y="0px"
	 viewBox="0 0 263 140" style="enable-background:new 0 0 263 140;" xml:space="preserve">
<style type="text/css">
	.st0{fill-rule:evenodd;clip-rule:evenodd;fill:#A7A7A8;}
	.st1{fill:#00AEEF;}
	.st2{fill:#2E3192;}
	.st3{fill:#D82927;}
	.st4{fill:#00A8C4;}
	.st5{fill:#B9BABC;}
	.st6{fill:#F05225;}
	.st7{fill:#80BB41;}
	.st8{fill:#787878;}
	.st9{fill:#35A0DA;}
	.st10{fill:#FDB813;}
	.st11{fill:#E1251B;}
	.st12{fill:#708FA6;}
	.st13{fill:#1D1D1B;}
	.st14{fill:#010101;}
	.st15{fill:#005596;}
	.st16{fill-rule:evenodd;clip-rule:evenodd;fill:#005596;}
	.st17{fill:#EA0029;}
	.st18{fill-rule:evenodd;clip-rule:evenodd;fill:#EE312F;}
	.st19{fill:#F79020;}
	.st20{fill:#231F20;stroke:#393738;stroke-width:0.0938;stroke-miterlimit:10;}
	.st21{fill:#FFFFFF;stroke:#FFFFFF;stroke-width:0.0938;stroke-miterlimit:10;}
	.st22{fill-rule:evenodd;clip-rule:evenodd;fill:#B42025;}
	.st23{fill-rule:evenodd;clip-rule:evenodd;fill:#010101;}
	.st24{fill-rule:evenodd;clip-rule:evenodd;fill:#737272;}
	.st25{fill-rule:evenodd;clip-rule:evenodd;fill:#D71F27;}
	.st26{fill:#231F20;}
	.st27{fill-rule:evenodd;clip-rule:evenodd;fill:#0083CA;}
	.st28{fill:#8FC641;}
	.st29{fill:#6E6D74;}
	.st30{fill:#FFFFFF;}
</style>
<rect class="st0" width="263" height="140"/>
<g>
	<g>
		<path class="st28" d="M108.1,70.17c-2.13-0.2-4.04,1.32-4.32,3.44l-3.67,27.95h7.83l3.72-26.89
			C111.97,72.44,110.35,70.39,108.1,70.17z"/>
		<rect x="58.15" y="75.35" class="st28" width="39.5" height="26.18"/>
		<path class="st28" d="M79,52.33h-2.2c-5.15,0-9.81,2.09-13.19,5.46c-3.37,3.38-5.46,8.04-5.46,13.18h39.5
			C97.65,60.68,89.3,52.33,79,52.33z M69.17,64.79c-1.34,0-2.44-1.36-2.44-3.04s1.1-3.04,2.44-3.04c1.35,0,2.44,1.36,2.44,3.04
			S70.52,64.79,69.17,64.79z M86.61,64.79c-1.35,0-2.44-1.36-2.44-3.04s1.09-3.04,2.44-3.04c1.35,0,2.44,1.36,2.44,3.04
			S87.96,64.79,86.61,64.79z"/>
		<path class="st28" d="M50.03,73.43c-3.01,0-5.46,2.44-5.46,5.46v22.99h10.91V78.88C55.49,75.87,53.04,73.43,50.03,73.43z"/>
	</g>
	<polygon class="st29" points="59.46,47.81 77.92,36.47 96.38,47.63 89.09,51.51 89.09,54.93 85.31,53.4 77.83,60.06 70.18,53.22 
		66.67,54.93 66.58,51.33 	"/>
	<g>
		<polygon class="st29" points="92.3,53.56 91.63,64.84 94.06,64.49 		"/>
		<ellipse class="st29" cx="92.1" cy="52.38" rx="0.54" ry="0.68"/>
	</g>
	<path class="st29" d="M101.77,60.06l3.2-0.24l1.98,12.71c0,0,1.59-2.54,2.83-2.64c0,0,1.28,0.37,0.08,1.65l-1.15,0.99l1.76,0.06
		c0,0,1.56,2.11-0.54,2.63c0,0-1.88,0.15-2.38-0.26c-0.5-0.41-0.08,0.02-0.08,0.02l3.53,14.72c0,0-3.21,0.24-3.53,0.58l-1.85-13.35
		l-0.7,5.26l-0.67-2.74c0,0-1.53,0.96-1.85,0.96c0,0,0.86,0.34,2.17-5.82c0,0-3,0.76-3.62-0.11c0,0-1.82-2.74,1.93-2.74
		c0,0-1.79-0.89-1.7-1.67c0,0-0.11-1.62,1.88-0.17l1.54,1.73L101.77,60.06z"/>
	<g>
		<path class="st30" d="M131.11,75.96l-2.89,12.71h-9.52l12.42-49.53h12.05l12.6,49.53h-9.88l-3.13-12.71H131.11z M141.41,67.58
			l-2.53-10.51c-0.72-2.94-1.45-6.61-2.05-9.55h-0.12c-0.6,2.94-1.21,6.69-1.87,9.55l-2.41,10.51H141.41z"/>
		<path class="st30" d="M164.02,48.55h-10.91v-9.41h31.22v9.41h-11.09v40.12h-9.22V48.55z"/>
		<path class="st30" d="M217.3,87.27c-1.69,1.03-5.48,2.13-10.43,2.13c-14.04,0-21.28-10.66-21.28-24.77
			c0-16.9,9.88-26.31,22.18-26.31c4.76,0,8.38,1.18,10,2.2l-1.87,8.89c-1.87-0.96-4.46-1.84-7.71-1.84
			c-7.29,0-12.96,5.36-12.96,16.39c0,9.92,4.82,16.17,13.02,16.17c2.77,0,5.85-0.74,7.66-1.62L217.3,87.27z"/>
	</g>
	<g>
		<g>
			<path class="st30" d="M119.22,99.91l-0.44,1.73h-0.96l1.63-6.1h1.18l1.65,6.1h-1l-0.46-1.73H119.22z M120.67,99.07l-0.4-1.5
				c-0.1-0.37-0.18-0.79-0.26-1.14H120c-0.08,0.35-0.15,0.78-0.24,1.14l-0.39,1.5H120.67z"/>
			<path class="st30" d="M126.25,95.22v5.19c0,0.45,0.02,0.94,0.03,1.24h-0.83l-0.04-0.7h-0.01c-0.22,0.49-0.66,0.8-1.2,0.8
				c-0.88,0-1.57-0.9-1.57-2.25c-0.01-1.47,0.76-2.35,1.64-2.35c0.5,0,0.87,0.25,1.03,0.58h0.02v-2.5H126.25z M125.32,99.07
				c0-0.09-0.01-0.2-0.02-0.29c-0.08-0.43-0.38-0.79-0.8-0.79c-0.59,0-0.93,0.63-0.93,1.46c0,0.81,0.33,1.39,0.92,1.39
				c0.38,0,0.71-0.31,0.8-0.79c0.02-0.1,0.03-0.21,0.03-0.33V99.07z"/>
			<path class="st30" d="M127.83,97.23l0.6,2.24c0.11,0.39,0.18,0.74,0.25,1.1h0.02c0.07-0.36,0.15-0.71,0.25-1.1l0.58-2.24h0.98
				l-1.4,4.41h-0.91l-1.36-4.41H127.83z"/>
			<path class="st30" d="M133.09,101.64l-0.06-0.49h-0.02c-0.23,0.34-0.61,0.59-1.08,0.59c-0.74,0-1.15-0.64-1.15-1.31
				c0-1.11,0.82-1.67,2.18-1.67v-0.07c0-0.29-0.1-0.77-0.75-0.77c-0.36,0-0.74,0.14-0.99,0.33l-0.18-0.72
				c0.27-0.2,0.75-0.39,1.33-0.39c1.18,0,1.51,0.9,1.51,1.86v1.59c0,0.4,0.02,0.79,0.05,1.06H133.09z M132.97,99.49
				c-0.66-0.02-1.28,0.15-1.28,0.82c0,0.43,0.23,0.63,0.53,0.63c0.37,0,0.64-0.29,0.72-0.61c0.02-0.08,0.03-0.17,0.03-0.25V99.49z"
				/>
			<path class="st30" d="M134.85,98.55c0-0.51-0.01-0.93-0.03-1.31h0.81l0.04,0.66h0.02c0.16-0.34,0.56-0.76,1.17-0.76
				c0.64,0,1.3,0.5,1.3,1.89v2.62h-0.93v-2.49c0-0.63-0.2-1.11-0.7-1.11c-0.37,0-0.63,0.32-0.72,0.65c-0.03,0.1-0.04,0.24-0.04,0.36
				v2.59h-0.94V98.55z"/>
			<path class="st30" d="M141.87,101.51c-0.2,0.11-0.58,0.23-1.04,0.23c-1.15,0-1.89-0.88-1.89-2.24c0-1.32,0.75-2.35,2.04-2.35
				c0.34,0,0.69,0.09,0.9,0.21l-0.17,0.83c-0.15-0.08-0.37-0.17-0.7-0.17c-0.71,0-1.13,0.63-1.12,1.43c0,0.91,0.49,1.42,1.12,1.42
				c0.32,0,0.55-0.08,0.73-0.17L141.87,101.51z"/>
			<path class="st30" d="M143.14,99.75c0.02,0.8,0.54,1.14,1.13,1.14c0.43,0,0.74-0.07,1.02-0.2l0.14,0.77
				c-0.32,0.15-0.75,0.27-1.28,0.27c-1.19,0-1.89-0.88-1.89-2.23c0-1.22,0.62-2.37,1.79-2.37c1.19,0,1.58,1.18,1.58,2.14
				c0,0.21-0.01,0.37-0.03,0.47H143.14z M144.75,98.97c0.01-0.41-0.14-1.08-0.76-1.08c-0.57,0-0.81,0.62-0.85,1.08H144.75z"/>
			<path class="st30" d="M149.76,95.22v5.19c0,0.45,0.02,0.94,0.03,1.24h-0.83l-0.04-0.7h-0.01c-0.22,0.49-0.66,0.8-1.2,0.8
				c-0.88,0-1.57-0.9-1.57-2.25c-0.01-1.47,0.76-2.35,1.64-2.35c0.5,0,0.87,0.25,1.03,0.58h0.02v-2.5H149.76z M148.83,99.07
				c0-0.09-0.01-0.2-0.02-0.29c-0.08-0.43-0.38-0.79-0.8-0.79c-0.59,0-0.93,0.63-0.93,1.46c0,0.81,0.33,1.39,0.92,1.39
				c0.38,0,0.71-0.31,0.8-0.79c0.02-0.1,0.03-0.21,0.03-0.33V99.07z"/>
			<path class="st30" d="M153.02,96.48h-1.45v-0.93h3.84v0.93h-1.46v5.17h-0.93V96.48z"/>
			<path class="st30" d="M155.59,98.66c0-0.6-0.01-1.02-0.03-1.42h0.81l0.03,0.84h0.03c0.18-0.62,0.61-0.94,1-0.94
				c0.09,0,0.14,0.01,0.22,0.03v1.05c-0.08-0.02-0.16-0.04-0.27-0.04c-0.45,0-0.75,0.34-0.83,0.84c-0.02,0.1-0.03,0.22-0.03,0.34
				v2.28h-0.93V98.66z"/>
			<path class="st30" d="M160.27,101.64l-0.06-0.49h-0.02c-0.23,0.34-0.61,0.59-1.08,0.59c-0.74,0-1.15-0.64-1.15-1.31
				c0-1.11,0.82-1.67,2.18-1.67v-0.07c0-0.29-0.1-0.77-0.75-0.77c-0.36,0-0.74,0.14-0.99,0.33l-0.18-0.72
				c0.27-0.2,0.75-0.39,1.33-0.39c1.18,0,1.51,0.9,1.51,1.86v1.59c0,0.4,0.02,0.79,0.05,1.06H160.27z M160.15,99.49
				c-0.66-0.02-1.28,0.15-1.28,0.82c0,0.43,0.23,0.63,0.53,0.63c0.37,0,0.64-0.29,0.72-0.61c0.02-0.08,0.03-0.17,0.03-0.25V99.49z"
				/>
			<path class="st30" d="M163.03,96c0,0.34-0.2,0.6-0.53,0.6c-0.31,0-0.51-0.26-0.51-0.6c0-0.34,0.21-0.61,0.52-0.61
				C162.82,95.4,163.02,95.66,163.03,96z M162.04,101.64v-4.41h0.94v4.41H162.04z"/>
			<path class="st30" d="M163.97,98.55c0-0.51-0.01-0.93-0.03-1.31h0.81l0.05,0.66h0.02c0.16-0.34,0.56-0.76,1.17-0.76
				c0.64,0,1.3,0.5,1.3,1.89v2.62h-0.93v-2.49c0-0.63-0.2-1.11-0.7-1.11c-0.37,0-0.63,0.32-0.72,0.65c-0.03,0.1-0.04,0.24-0.04,0.36
				v2.59h-0.94V98.55z"/>
			<path class="st30" d="M169.27,96c0,0.34-0.2,0.6-0.53,0.6c-0.31,0-0.51-0.26-0.51-0.6c0-0.34,0.21-0.61,0.52-0.61
				C169.06,95.4,169.26,95.66,169.27,96z M168.28,101.64v-4.41h0.94v4.41H168.28z"/>
			<path class="st30" d="M170.21,98.55c0-0.51-0.01-0.93-0.03-1.31H171l0.05,0.66h0.02c0.16-0.34,0.56-0.76,1.17-0.76
				c0.64,0,1.3,0.5,1.3,1.89v2.62h-0.93v-2.49c0-0.63-0.2-1.11-0.7-1.11c-0.37,0-0.63,0.32-0.72,0.65c-0.03,0.1-0.04,0.24-0.04,0.36
				v2.59h-0.94V98.55z"/>
			<path class="st30" d="M177.88,97.23c-0.01,0.3-0.03,0.66-0.03,1.27v2.5c0,0.92-0.16,1.58-0.54,2c-0.38,0.41-0.91,0.53-1.42,0.53
				c-0.47,0-0.96-0.12-1.28-0.35l0.2-0.84c0.23,0.16,0.63,0.34,1.07,0.34c0.6,0,1.05-0.38,1.05-1.33v-0.38h-0.01
				c-0.21,0.39-0.59,0.65-1.07,0.65c-0.91,0-1.56-0.91-1.56-2.15c0-1.45,0.78-2.33,1.67-2.33c0.56,0,0.89,0.33,1.06,0.69h0.02
				l0.04-0.59H177.88z M176.92,99c0-0.1-0.01-0.21-0.03-0.3c-0.1-0.41-0.36-0.71-0.75-0.71c-0.52,0-0.9,0.54-0.9,1.44
				c0,0.75,0.32,1.36,0.9,1.36c0.35,0,0.65-0.27,0.75-0.67c0.02-0.12,0.04-0.27,0.04-0.4V99z"/>
			<path class="st30" d="M184.08,101.46c-0.22,0.13-0.7,0.27-1.31,0.27c-1.61,0-2.59-1.21-2.59-3.07c0-2.01,1.16-3.22,2.71-3.22
				c0.61,0,1.05,0.15,1.24,0.27l-0.2,0.89c-0.24-0.13-0.57-0.24-1-0.24c-1.03,0-1.78,0.78-1.78,2.24c0,1.34,0.66,2.2,1.77,2.2
				c0.38,0,0.77-0.09,1.01-0.23L184.08,101.46z"/>
			<path class="st30" d="M188.21,99.4c0,1.62-0.95,2.34-1.88,2.34c-1.04,0-1.84-0.86-1.84-2.27c0-1.45,0.79-2.33,1.9-2.33
				C187.47,97.14,188.21,98.06,188.21,99.4z M185.44,99.44c0,0.85,0.35,1.49,0.91,1.49c0.53,0,0.9-0.62,0.9-1.51
				c0-0.69-0.26-1.48-0.89-1.48C185.7,97.95,185.44,98.71,185.44,99.44z"/>
			<path class="st30" d="M188.97,98.55c0-0.51-0.01-0.93-0.03-1.31h0.81l0.05,0.66h0.02c0.16-0.34,0.56-0.76,1.17-0.76
				c0.64,0,1.3,0.5,1.3,1.89v2.62h-0.93v-2.49c0-0.63-0.2-1.11-0.7-1.11c-0.37,0-0.63,0.32-0.72,0.65c-0.03,0.1-0.04,0.24-0.04,0.36
				v2.59h-0.94V98.55z"/>
			<path class="st30" d="M193.23,100.62c0.21,0.15,0.61,0.32,0.94,0.32c0.41,0,0.59-0.2,0.59-0.49c0-0.3-0.15-0.45-0.6-0.64
				c-0.72-0.3-1.02-0.77-1.01-1.29c0-0.78,0.54-1.38,1.39-1.38c0.41,0,0.76,0.13,0.97,0.26l-0.18,0.79
				c-0.16-0.11-0.45-0.25-0.78-0.25c-0.33,0-0.51,0.19-0.51,0.46c0,0.28,0.17,0.42,0.64,0.62c0.66,0.29,0.97,0.7,0.98,1.35
				c0,0.79-0.52,1.38-1.49,1.38c-0.44,0-0.84-0.13-1.12-0.31L193.23,100.62z"/>
			<path class="st30" d="M199.71,100.32c0,0.53,0.01,0.96,0.03,1.32h-0.81l-0.04-0.67h-0.02c-0.16,0.32-0.52,0.77-1.18,0.77
				c-0.67,0-1.28-0.48-1.28-1.92v-2.59h0.93v2.4c0,0.73,0.2,1.2,0.69,1.2c0.37,0,0.61-0.32,0.71-0.6c0.03-0.1,0.05-0.22,0.05-0.34
				v-2.66h0.93V100.32z"/>
			<path class="st30" d="M200.71,95.22h0.94v6.42h-0.94V95.22z"/>
			<path class="st30" d="M203.71,95.98v1.26h0.88v0.83h-0.88v1.95c0,0.53,0.12,0.81,0.47,0.81c0.16,0,0.28-0.03,0.36-0.05l0.01,0.85
				c-0.14,0.06-0.38,0.11-0.67,0.11c-0.34,0-0.63-0.14-0.8-0.36c-0.2-0.25-0.29-0.65-0.29-1.23v-2.07h-0.53v-0.83h0.53v-0.99
				L203.71,95.98z"/>
			<path class="st30" d="M207.36,101.64l-0.06-0.49h-0.02c-0.23,0.34-0.61,0.59-1.08,0.59c-0.74,0-1.15-0.64-1.15-1.31
				c0-1.11,0.82-1.67,2.18-1.67v-0.07c0-0.29-0.1-0.77-0.75-0.77c-0.36,0-0.74,0.14-0.99,0.33l-0.18-0.72
				c0.27-0.2,0.75-0.39,1.33-0.39c1.18,0,1.51,0.9,1.51,1.86v1.59c0,0.4,0.02,0.79,0.05,1.06H207.36z M207.24,99.49
				c-0.66-0.02-1.28,0.15-1.28,0.82c0,0.43,0.23,0.63,0.53,0.63c0.37,0,0.64-0.29,0.72-0.61c0.02-0.08,0.03-0.17,0.03-0.25V99.49z"
				/>
			<path class="st30" d="M209.12,98.55c0-0.51-0.01-0.93-0.03-1.31h0.81l0.05,0.66h0.02c0.16-0.34,0.56-0.76,1.17-0.76
				c0.64,0,1.3,0.5,1.3,1.89v2.62h-0.93v-2.49c0-0.63-0.2-1.11-0.7-1.11c-0.37,0-0.63,0.32-0.72,0.65c-0.03,0.1-0.04,0.24-0.04,0.36
				v2.59h-0.94V98.55z"/>
			<path class="st30" d="M214.46,95.98v1.26h0.88v0.83h-0.88v1.95c0,0.53,0.12,0.81,0.47,0.81c0.16,0,0.28-0.03,0.36-0.05l0.01,0.85
				c-0.14,0.06-0.38,0.11-0.67,0.11c-0.34,0-0.63-0.14-0.8-0.36c-0.2-0.25-0.29-0.65-0.29-1.23v-2.07h-0.53v-0.83h0.53v-0.99
				L214.46,95.98z"/>
			<path class="st30" d="M216,100.62c0.21,0.15,0.61,0.32,0.94,0.32c0.41,0,0.59-0.2,0.59-0.49c0-0.3-0.15-0.45-0.6-0.64
				c-0.72-0.3-1.02-0.77-1.01-1.29c0-0.78,0.54-1.38,1.39-1.38c0.41,0,0.76,0.13,0.97,0.26l-0.18,0.79
				c-0.16-0.11-0.45-0.25-0.78-0.25c-0.33,0-0.51,0.19-0.51,0.46c0,0.28,0.17,0.42,0.64,0.62c0.66,0.29,0.97,0.7,0.98,1.35
				c0,0.79-0.52,1.38-1.49,1.38c-0.44,0-0.84-0.13-1.12-0.31L216,100.62z"/>
		</g>
	</g>
</g>
</svg>
