<?xml version="1.0" encoding="utf-8"?>
<!-- Generator: Adobe Illustrator 23.0.1, SVG Export Plug-In . SVG Version: 6.00 Build 0)  -->
<svg version="1.1" id="Layer_1" xmlns="http://www.w3.org/2000/svg" xmlns:xlink="http://www.w3.org/1999/xlink" x="0px" y="0px"
	 viewBox="0 0 263 140" style="enable-background:new 0 0 263 140;" xml:space="preserve">
<style type="text/css">
	.st0{fill-rule:evenodd;clip-rule:evenodd;fill:#A7A7A8;}
	.st1{fill:#00AEEF;}
	.st2{fill:#2E3192;}
	.st3{fill:#D82927;}
	.st4{fill:#00A8C4;}
	.st5{fill:#B9BABC;}
	.st6{fill:#F05225;}
	.st7{fill:#80BB41;}
	.st8{fill:#787878;}
	.st9{fill:#35A0DA;}
	.st10{fill:#FDB813;}
	.st11{fill:#E1251B;}
	.st12{fill:#708FA6;}
	.st13{fill:#1D1D1B;}
	.st14{fill:#010101;}
	.st15{fill:#005596;}
	.st16{fill-rule:evenodd;clip-rule:evenodd;fill:#005596;}
	.st17{fill:#EA0029;}
	.st18{fill-rule:evenodd;clip-rule:evenodd;fill:#EE312F;}
	.st19{fill:#F79020;}
	.st20{fill:#231F20;stroke:#393738;stroke-width:0.0938;stroke-miterlimit:10;}
	.st21{fill:#FFFFFF;stroke:#FFFFFF;stroke-width:0.0938;stroke-miterlimit:10;}
	.st22{fill-rule:evenodd;clip-rule:evenodd;fill:#B42025;}
	.st23{fill-rule:evenodd;clip-rule:evenodd;fill:#010101;}
	.st24{fill-rule:evenodd;clip-rule:evenodd;fill:#737272;}
	.st25{fill-rule:evenodd;clip-rule:evenodd;fill:#D71F27;}
	.st26{fill:#231F20;}
	.st27{fill-rule:evenodd;clip-rule:evenodd;fill:#0083CA;}
</style>
<rect class="st0" width="263" height="140"/>
<path class="st27" d="M54.59,48.56h18.7l2.05,0.09l1.96,0.17l1.88,0.43l1.79,0.43l1.62,0.68l1.54,0.68l1.45,0.85l1.37,0.94l1.2,1.02
	l1.2,1.11l1.03,1.2l0.94,1.28l0.77,1.37l0.77,1.37l0.6,1.45l0.51,1.45L120.53,46l9.65,6.49l-20.67,13.32l3.33,2.22l20.84-13.24
	l8.97,5.98l-20.58,13.58l3.5,2.14l20.92-13.32v-14.6h15.37v29.12h13.67v13.67h-29.04V77.35L120.61,94L94.22,76.15l-0.51,1.54
	l-0.51,1.45l-0.77,1.45l-0.77,1.45l-0.94,1.28l-1.03,1.28l-1.11,1.2l-1.28,1.03l-1.28,1.02l-1.54,0.85l-1.54,0.77l-1.71,0.68
	l-1.79,0.51l-1.88,0.34l-1.96,0.26l-2.14,0.09H54.59V48.56L54.59,48.56L54.59,48.56L54.59,48.56z M69.28,61.97h4.01l1.79,0.17
	l1.45,0.51l1.28,0.77l1.11,1.03l0.77,1.2l0.6,1.28l0.34,1.45l0.09,1.45l-0.09,1.45l-0.34,1.45l-0.6,1.28l-0.85,1.2l-1.02,1.03
	L76.54,77L75,77.52l-1.71,0.17h-4.01V61.97L69.28,61.97L69.28,61.97L69.28,61.97z M179.37,48.56h15.46v29.12h13.58v13.67h-29.04
	V48.56L179.37,48.56L179.37,48.56L179.37,48.56z"/>
</svg>
