<?xml version="1.0" encoding="utf-8"?>
<!-- Generator: Adobe Illustrator 23.0.1, SVG Export Plug-In . SVG Version: 6.00 Build 0)  -->
<svg version="1.1" id="Layer_1" xmlns="http://www.w3.org/2000/svg" xmlns:xlink="http://www.w3.org/1999/xlink" x="0px" y="0px"
	 viewBox="0 0 263 140" style="enable-background:new 0 0 263 140;" xml:space="preserve">
<style type="text/css">
	.st0{fill-rule:evenodd;clip-rule:evenodd;fill:#A7A7A8;}
	.st1{fill:#00AEEF;}
	.st2{fill:#2E3192;}
	.st3{fill:#D82927;}
	.st4{fill:#00A8C4;}
	.st5{fill:#B9BABC;}
	.st6{fill:#F05225;}
	.st7{fill:#80BB41;}
	.st8{fill:#787878;}
	.st9{fill:#35A0DA;}
	.st10{fill:#FDB813;}
	.st11{fill:#E1251B;}
	.st12{fill:#708FA6;}
	.st13{fill:#1D1D1B;}
	.st14{fill:#010101;}
	.st15{fill:#005596;}
	.st16{fill-rule:evenodd;clip-rule:evenodd;fill:#005596;}
	.st17{fill:#EA0029;}
	.st18{fill-rule:evenodd;clip-rule:evenodd;fill:#EE312F;}
	.st19{fill:#F79020;}
	.st20{fill:#231F20;stroke:#393738;stroke-width:0.0938;stroke-miterlimit:10;}
	.st21{fill:#FFFFFF;stroke:#FFFFFF;stroke-width:0.0938;stroke-miterlimit:10;}
	.st22{fill-rule:evenodd;clip-rule:evenodd;fill:#B42025;}
	.st23{fill-rule:evenodd;clip-rule:evenodd;fill:#010101;}
	.st24{fill-rule:evenodd;clip-rule:evenodd;fill:#737272;}
	.st25{fill-rule:evenodd;clip-rule:evenodd;fill:#D71F27;}
	.st26{fill:#231F20;}
	.st27{fill-rule:evenodd;clip-rule:evenodd;fill:#0083CA;}
	.st28{fill:#8FC641;}
	.st29{fill:#6E6D74;}
	.st30{fill:#FFFFFF;}
	.st31{fill:url(#SVGID_1_);}
	.st32{fill:url(#SVGID_2_);}
	.st33{fill:url(#SVGID_3_);}
	.st34{fill:#E28526;}
	.st35{fill:url(#SVGID_4_);}
	.st36{fill:url(#SVGID_5_);}
	.st37{fill:url(#SVGID_6_);}
	.st38{fill:#0F497B;}
	.st39{fill:#DD7927;}
</style>
<rect class="st0" width="263" height="140"/>
<g>
	<g>
		<linearGradient id="SVGID_1_" gradientUnits="userSpaceOnUse" x1="40.1892" y1="49.3096" x2="40.3903" y2="82.6794">
			<stop  offset="0" style="stop-color:#E43D3B"/>
			<stop  offset="1" style="stop-color:#76030E"/>
		</linearGradient>
		<rect x="37.21" y="55.41" class="st31" width="6.21" height="29.75"/>
		<linearGradient id="SVGID_2_" gradientUnits="userSpaceOnUse" x1="58.2538" y1="74.8707" x2="57.8209" y2="39.3685">
			<stop  offset="0.2807" style="stop-color:#8DC63F"/>
			<stop  offset="0.836" style="stop-color:#009444"/>
		</linearGradient>
		<polygon class="st32" points="66.59,48.64 49.54,48.64 49.54,69.72 		"/>
		<linearGradient id="SVGID_3_" gradientUnits="userSpaceOnUse" x1="37.8386" y1="70.2998" x2="67.9289" y2="97.3595">
			<stop  offset="0.2902" style="stop-color:#00AEEF"/>
			<stop  offset="0.8394" style="stop-color:#2E3192"/>
		</linearGradient>
		<polygon class="st33" points="66.59,91.36 49.54,91.36 49.54,70.28 		"/>
		<polygon class="st34" points="65.11,60.6 56.95,69.72 64.73,79.69 		"/>
	</g>
	<g>
		<path class="st38" d="M72.48,76.11V51.68h4.06v11.07l6.34-11.07h4.7l-6.8,11.13l7.05,13.3h-4.9l-6.39-12.79v12.79H72.48z"/>
		<path class="st38" d="M103.46,76.11h-4.69l-5-11.42v11.42h-4.06V51.68h5.82c2.31,0,4.04,0.58,5.19,1.73
			c1.15,1.15,1.73,2.89,1.73,5.2c0,1.68-0.39,3.12-1.18,4.31c-0.79,1.19-1.8,1.89-3.05,2.09L103.46,76.11z M93.78,62.09h0.61
			c1.64,0,2.73-0.23,3.26-0.69c0.53-0.46,0.79-1.27,0.79-2.41c0-1.2-0.28-2.06-0.85-2.56c-0.57-0.51-1.63-0.76-3.2-0.76h-0.61V62.09
			z"/>
		<path class="st38" d="M109.27,76.11V64.96l-6.44-13.29h4.77l2.82,6.69c0.14,0.33,0.28,0.76,0.43,1.27c0.15,0.51,0.3,1.1,0.46,1.77
			c0.12-0.57,0.26-1.1,0.41-1.6c0.15-0.5,0.32-0.99,0.51-1.47l2.8-6.66h4.76l-6.44,13.29v11.15H109.27z"/>
		<path class="st38" d="M128.58,56.12v20h-4.08v-20h-4.65v-4.44h13.38v4.44H128.58z"/>
		<path class="st38" d="M135.89,76.11V51.68h11.19v4.41h-7.13v5.02h7.13v4.44h-7.13v6.13h7.13v4.44H135.89z"/>
		<path class="st38" d="M164.82,76.11h-4.69l-5-11.42v11.42h-4.06V51.68h5.82c2.31,0,4.04,0.58,5.19,1.73
			c1.15,1.15,1.73,2.89,1.73,5.2c0,1.68-0.39,3.12-1.18,4.31c-0.79,1.19-1.8,1.89-3.05,2.09L164.82,76.11z M155.13,62.09h0.61
			c1.64,0,2.73-0.23,3.26-0.69c0.53-0.46,0.79-1.27,0.79-2.41c0-1.2-0.28-2.06-0.85-2.56c-0.57-0.51-1.63-0.76-3.2-0.76h-0.61V62.09
			z"/>
		<path class="st38" d="M167.26,76.11V51.68h4.06v24.44H167.26z"/>
		<path class="st38" d="M195.13,63.95c0,1.75-0.25,3.4-0.76,4.96c-0.51,1.56-1.24,2.93-2.19,4.11c-0.99,1.21-2.1,2.14-3.34,2.79
			c-1.24,0.65-2.52,0.97-3.84,0.97c-1.16,0-2.3-0.25-3.41-0.76s-2.13-1.23-3.06-2.18c-1.19-1.22-2.11-2.69-2.75-4.39
			c-0.64-1.7-0.95-3.53-0.95-5.49c0-1.76,0.25-3.41,0.75-4.95c0.5-1.54,1.24-2.91,2.21-4.11c0.95-1.19,2.06-2.11,3.32-2.77
			c1.26-0.66,2.56-0.98,3.89-0.98c1.32,0,2.61,0.33,3.86,0.98c1.25,0.66,2.36,1.58,3.32,2.77c0.96,1.2,1.69,2.58,2.19,4.12
			S195.13,62.2,195.13,63.95z M185,72.11c1.72,0,3.14-0.78,4.27-2.33c1.12-1.55,1.68-3.5,1.68-5.83c0-2.31-0.57-4.26-1.7-5.84
			c-1.13-1.58-2.55-2.37-4.25-2.37c-1.72,0-3.15,0.79-4.29,2.36c-1.13,1.58-1.7,3.53-1.7,5.85c0,2.36,0.56,4.31,1.67,5.85
			C181.8,71.34,183.24,72.11,185,72.11z"/>
		<path class="st38" d="M198.56,76.11V51.68h4.22l8.42,14.22c0.24,0.4,0.51,0.97,0.8,1.69c0.29,0.73,0.59,1.59,0.9,2.58
			c-0.1-0.72-0.16-1.44-0.21-2.15c-0.04-0.71-0.06-1.6-0.06-2.67V51.68h3.88v24.44h-3.99l-8.65-14.49c-0.24-0.4-0.51-0.96-0.79-1.69
			c-0.29-0.73-0.59-1.6-0.91-2.61c0.1,0.7,0.17,1.41,0.21,2.13s0.07,1.62,0.07,2.71v13.96H198.56z"/>
	</g>
	<g>
		<path class="st39" d="M75.92,87.17v-0.84l3.02,0v2.65c-0.46,0.37-0.94,0.65-1.44,0.83s-1,0.28-1.52,0.28
			c-0.7,0-1.34-0.15-1.91-0.45s-1-0.73-1.3-1.3c-0.29-0.57-0.44-1.2-0.44-1.9c0-0.69,0.15-1.34,0.44-1.94s0.71-1.05,1.25-1.34
			s1.17-0.44,1.88-0.44c0.52,0,0.98,0.08,1.4,0.25s0.74,0.4,0.98,0.7c0.24,0.3,0.42,0.69,0.54,1.17l-0.85,0.23
			c-0.11-0.36-0.24-0.65-0.4-0.86c-0.16-0.21-0.39-0.37-0.68-0.5c-0.29-0.13-0.62-0.19-0.98-0.19c-0.43,0-0.8,0.07-1.12,0.2
			c-0.31,0.13-0.57,0.3-0.76,0.52c-0.19,0.21-0.34,0.45-0.45,0.71c-0.18,0.44-0.27,0.92-0.27,1.43c0,0.64,0.11,1.17,0.33,1.6
			c0.22,0.43,0.54,0.75,0.96,0.95c0.42,0.21,0.86,0.31,1.33,0.31c0.41,0,0.81-0.08,1.2-0.24c0.39-0.16,0.68-0.33,0.89-0.5v-1.33
			H75.92z"/>
		<path class="st39" d="M80.3,89.97v-7.13h0.94v6.29h3.51v0.84H80.3z"/>
		<path class="st39" d="M85.59,86.49c0-1.18,0.32-2.11,0.95-2.78c0.64-0.67,1.46-1,2.46-1c0.66,0,1.25,0.16,1.78,0.47
			s0.93,0.75,1.21,1.32c0.28,0.56,0.42,1.2,0.42,1.91c0,0.72-0.15,1.37-0.44,1.94s-0.71,1-1.24,1.3c-0.54,0.29-1.11,0.44-1.73,0.44
			c-0.67,0-1.27-0.16-1.8-0.49c-0.53-0.32-0.93-0.77-1.2-1.33C85.73,87.71,85.59,87.12,85.59,86.49z M86.56,86.51
			c0,0.86,0.23,1.54,0.69,2.03c0.46,0.49,1.04,0.74,1.74,0.74c0.71,0,1.29-0.25,1.75-0.75c0.46-0.5,0.69-1.21,0.69-2.13
			c0-0.58-0.1-1.09-0.29-1.52c-0.2-0.43-0.48-0.77-0.86-1.01s-0.8-0.36-1.27-0.36c-0.67,0-1.24,0.23-1.73,0.69
			C86.8,84.67,86.56,85.43,86.56,86.51z"/>
		<path class="st39" d="M93.59,89.97v-7.13h2.68c0.54,0,0.98,0.07,1.31,0.22s0.59,0.37,0.77,0.67c0.19,0.3,0.28,0.61,0.28,0.94
			c0,0.3-0.08,0.59-0.25,0.86c-0.17,0.27-0.42,0.49-0.75,0.65c0.43,0.13,0.76,0.34,1,0.65c0.23,0.3,0.35,0.67,0.35,1.08
			c0,0.33-0.07,0.64-0.21,0.93c-0.14,0.29-0.32,0.51-0.52,0.66c-0.21,0.16-0.47,0.27-0.78,0.35c-0.31,0.08-0.7,0.12-1.15,0.12H93.59
			z M94.53,85.83h1.54c0.42,0,0.72-0.03,0.9-0.08c0.24-0.07,0.42-0.19,0.54-0.36c0.12-0.17,0.18-0.37,0.18-0.62
			c0-0.24-0.06-0.45-0.17-0.63s-0.28-0.3-0.49-0.37c-0.21-0.07-0.57-0.1-1.08-0.1h-1.43V85.83z M94.53,89.12h1.78
			c0.3,0,0.52-0.01,0.64-0.03c0.22-0.04,0.4-0.1,0.54-0.19c0.15-0.09,0.27-0.22,0.36-0.4c0.09-0.17,0.14-0.37,0.14-0.6
			c0-0.27-0.07-0.5-0.2-0.69c-0.14-0.2-0.33-0.33-0.57-0.41c-0.24-0.08-0.59-0.12-1.04-0.12h-1.65V89.12z"/>
		<path class="st39" d="M99.49,89.97l2.74-7.13h1.02l2.92,7.13h-1.08l-0.83-2.16h-2.98l-0.78,2.16H99.49z M101.55,87.04h2.42
			l-0.75-1.98c-0.23-0.6-0.4-1.09-0.51-1.48c-0.09,0.46-0.22,0.91-0.38,1.36L101.55,87.04z"/>
		<path class="st39" d="M106.88,89.97v-7.13h0.94v6.29h3.51v0.84H106.88z"/>
		<path class="st39" d="M116.49,89.97v-6.29h-2.35v-0.84h5.65v0.84h-2.36v6.29H116.49z"/>
		<path class="st39" d="M120.79,89.97v-7.13h5.16v0.84h-4.21v2.18h3.95v0.84h-3.95v2.43h4.38v0.84H120.79z"/>
		<path class="st39" d="M127.09,87.67l0.89-0.08c0.04,0.36,0.14,0.65,0.29,0.88c0.15,0.23,0.39,0.41,0.72,0.55
			c0.32,0.14,0.69,0.21,1.09,0.21c0.36,0,0.68-0.05,0.95-0.16c0.28-0.11,0.48-0.25,0.62-0.44s0.2-0.39,0.2-0.61
			c0-0.22-0.07-0.42-0.19-0.59c-0.13-0.17-0.34-0.31-0.64-0.42c-0.19-0.08-0.62-0.19-1.27-0.35c-0.66-0.16-1.11-0.31-1.38-0.45
			c-0.34-0.18-0.59-0.4-0.76-0.66c-0.17-0.26-0.25-0.56-0.25-0.89c0-0.36,0.1-0.7,0.31-1.01c0.2-0.31,0.5-0.55,0.9-0.71
			s0.83-0.24,1.31-0.24c0.53,0,1,0.08,1.4,0.25c0.4,0.17,0.71,0.42,0.93,0.75c0.22,0.33,0.33,0.71,0.35,1.12l-0.9,0.07
			c-0.05-0.45-0.21-0.79-0.49-1.02c-0.28-0.23-0.7-0.34-1.24-0.34c-0.57,0-0.99,0.1-1.25,0.31s-0.39,0.46-0.39,0.76
			c0,0.26,0.09,0.47,0.28,0.63c0.18,0.17,0.66,0.33,1.42,0.51c0.77,0.17,1.29,0.33,1.58,0.46c0.42,0.19,0.72,0.43,0.92,0.73
			c0.2,0.29,0.3,0.63,0.3,1.01c0,0.38-0.11,0.74-0.33,1.07c-0.22,0.34-0.53,0.6-0.94,0.78c-0.41,0.19-0.87,0.28-1.38,0.28
			c-0.65,0-1.19-0.09-1.62-0.28c-0.44-0.19-0.78-0.47-1.03-0.85S127.1,88.15,127.09,87.67z"/>
		<path class="st39" d="M135.87,89.97v-6.29h-2.35v-0.84h5.65v0.84h-2.36v6.29H135.87z"/>
		<path class="st39" d="M140.31,89.97v-7.13h0.94v7.13H140.31z"/>
		<path class="st39" d="M142.9,89.97v-7.13h0.97l3.75,5.6v-5.6h0.91v7.13h-0.97l-3.75-5.6v5.6H142.9z"/>
		<path class="st39" d="M153.45,87.17v-0.84l3.02,0v2.65c-0.46,0.37-0.94,0.65-1.44,0.83s-1,0.28-1.52,0.28
			c-0.7,0-1.34-0.15-1.91-0.45s-1-0.73-1.3-1.3c-0.29-0.57-0.44-1.2-0.44-1.9c0-0.69,0.15-1.34,0.44-1.94s0.71-1.05,1.25-1.34
			s1.17-0.44,1.88-0.44c0.52,0,0.98,0.08,1.4,0.25s0.74,0.4,0.98,0.7c0.24,0.3,0.42,0.69,0.54,1.17l-0.85,0.23
			c-0.11-0.36-0.24-0.65-0.4-0.86c-0.16-0.21-0.39-0.37-0.68-0.5c-0.29-0.13-0.62-0.19-0.98-0.19c-0.43,0-0.8,0.07-1.12,0.2
			c-0.31,0.13-0.57,0.3-0.76,0.52c-0.19,0.21-0.34,0.45-0.45,0.71c-0.18,0.44-0.27,0.92-0.27,1.43c0,0.64,0.11,1.17,0.33,1.6
			c0.22,0.43,0.54,0.75,0.96,0.95c0.42,0.21,0.86,0.31,1.33,0.31c0.41,0,0.81-0.08,1.2-0.24c0.39-0.16,0.68-0.33,0.89-0.5v-1.33
			H153.45z"/>
		<path class="st39" d="M160.31,87.67l0.89-0.08c0.04,0.36,0.14,0.65,0.29,0.88c0.15,0.23,0.39,0.41,0.72,0.55
			c0.32,0.14,0.69,0.21,1.09,0.21c0.36,0,0.68-0.05,0.95-0.16c0.28-0.11,0.48-0.25,0.62-0.44s0.2-0.39,0.2-0.61
			c0-0.22-0.07-0.42-0.19-0.59c-0.13-0.17-0.34-0.31-0.64-0.42c-0.19-0.08-0.62-0.19-1.27-0.35c-0.66-0.16-1.11-0.31-1.38-0.45
			c-0.34-0.18-0.59-0.4-0.76-0.66c-0.17-0.26-0.25-0.56-0.25-0.89c0-0.36,0.1-0.7,0.31-1.01c0.2-0.31,0.5-0.55,0.9-0.71
			s0.83-0.24,1.31-0.24c0.53,0,1,0.08,1.4,0.25c0.4,0.17,0.71,0.42,0.93,0.75c0.22,0.33,0.33,0.71,0.35,1.12l-0.9,0.07
			c-0.05-0.45-0.21-0.79-0.49-1.02c-0.28-0.23-0.7-0.34-1.24-0.34c-0.57,0-0.99,0.1-1.25,0.31s-0.39,0.46-0.39,0.76
			c0,0.26,0.09,0.47,0.28,0.63c0.18,0.17,0.66,0.33,1.42,0.51c0.77,0.17,1.29,0.33,1.58,0.46c0.42,0.19,0.72,0.43,0.92,0.73
			c0.2,0.29,0.3,0.63,0.3,1.01c0,0.38-0.11,0.74-0.33,1.07c-0.22,0.34-0.53,0.6-0.94,0.78c-0.41,0.19-0.87,0.28-1.38,0.28
			c-0.65,0-1.19-0.09-1.62-0.28c-0.44-0.19-0.78-0.47-1.03-0.85S160.32,88.15,160.31,87.67z"/>
		<path class="st39" d="M166.99,86.49c0-1.18,0.32-2.11,0.95-2.78c0.64-0.67,1.46-1,2.46-1c0.66,0,1.25,0.16,1.78,0.47
			s0.93,0.75,1.21,1.32c0.28,0.56,0.42,1.2,0.42,1.91c0,0.72-0.15,1.37-0.44,1.94s-0.71,1-1.24,1.3c-0.54,0.29-1.11,0.44-1.73,0.44
			c-0.67,0-1.27-0.16-1.8-0.49c-0.53-0.32-0.93-0.77-1.2-1.33C167.12,87.71,166.99,87.12,166.99,86.49z M167.96,86.51
			c0,0.86,0.23,1.54,0.69,2.03c0.46,0.49,1.04,0.74,1.74,0.74c0.71,0,1.29-0.25,1.75-0.75c0.46-0.5,0.69-1.21,0.69-2.13
			c0-0.58-0.1-1.09-0.29-1.52c-0.2-0.43-0.48-0.77-0.86-1.01s-0.8-0.36-1.27-0.36c-0.67,0-1.24,0.23-1.73,0.69
			C168.2,84.67,167.96,85.43,167.96,86.51z"/>
		<path class="st39" d="M174.99,89.97v-7.13h0.94v6.29h3.51v0.84H174.99z"/>
		<path class="st39" d="M185.25,82.83h0.94v4.12c0,0.72-0.08,1.29-0.24,1.71s-0.45,0.76-0.88,1.03c-0.42,0.26-0.98,0.4-1.67,0.4
			c-0.67,0-1.21-0.12-1.64-0.35s-0.73-0.56-0.91-1s-0.27-1.03-0.27-1.79v-4.12h0.94v4.12c0,0.62,0.06,1.08,0.17,1.37
			c0.11,0.29,0.31,0.52,0.59,0.68c0.28,0.16,0.62,0.24,1.03,0.24c0.69,0,1.19-0.16,1.48-0.47c0.29-0.31,0.44-0.92,0.44-1.81V82.83z"
			/>
		<path class="st39" d="M189.58,89.97v-6.29h-2.35v-0.84h5.65v0.84h-2.36v6.29H189.58z"/>
		<path class="st39" d="M194.01,89.97v-7.13h0.94v7.13H194.01z"/>
		<path class="st39" d="M196.33,86.49c0-1.18,0.32-2.11,0.95-2.78c0.64-0.67,1.46-1,2.46-1c0.66,0,1.25,0.16,1.78,0.47
			s0.93,0.75,1.21,1.32c0.28,0.56,0.42,1.2,0.42,1.91c0,0.72-0.15,1.37-0.44,1.94s-0.71,1-1.24,1.3c-0.54,0.29-1.11,0.44-1.73,0.44
			c-0.67,0-1.27-0.16-1.8-0.49c-0.53-0.32-0.93-0.77-1.2-1.33C196.47,87.71,196.33,87.12,196.33,86.49z M197.3,86.51
			c0,0.86,0.23,1.54,0.69,2.03c0.46,0.49,1.04,0.74,1.74,0.74c0.71,0,1.29-0.25,1.75-0.75c0.46-0.5,0.69-1.21,0.69-2.13
			c0-0.58-0.1-1.09-0.29-1.52c-0.2-0.43-0.48-0.77-0.86-1.01s-0.8-0.36-1.27-0.36c-0.67,0-1.24,0.23-1.73,0.69
			C197.54,84.67,197.3,85.43,197.3,86.51z"/>
		<path class="st39" d="M204.36,89.97v-7.13h0.97l3.75,5.6v-5.6h0.91v7.13h-0.97l-3.75-5.6v5.6H204.36z"/>
		<path class="st39" d="M211.24,87.67l0.89-0.08c0.04,0.36,0.14,0.65,0.29,0.88c0.15,0.23,0.39,0.41,0.72,0.55
			c0.32,0.14,0.69,0.21,1.09,0.21c0.36,0,0.68-0.05,0.95-0.16c0.28-0.11,0.48-0.25,0.62-0.44s0.2-0.39,0.2-0.61
			c0-0.22-0.07-0.42-0.19-0.59c-0.13-0.17-0.34-0.31-0.64-0.42c-0.19-0.08-0.62-0.19-1.27-0.35c-0.66-0.16-1.11-0.31-1.38-0.45
			c-0.34-0.18-0.59-0.4-0.76-0.66c-0.17-0.26-0.25-0.56-0.25-0.89c0-0.36,0.1-0.7,0.31-1.01c0.2-0.31,0.5-0.55,0.9-0.71
			s0.83-0.24,1.31-0.24c0.53,0,1,0.08,1.4,0.25c0.4,0.17,0.71,0.42,0.93,0.75c0.22,0.33,0.33,0.71,0.35,1.12l-0.9,0.07
			c-0.05-0.45-0.21-0.79-0.49-1.02c-0.28-0.23-0.7-0.34-1.24-0.34c-0.57,0-0.99,0.1-1.25,0.31s-0.39,0.46-0.39,0.76
			c0,0.26,0.09,0.47,0.28,0.63c0.18,0.17,0.66,0.33,1.42,0.51c0.77,0.17,1.29,0.33,1.58,0.46c0.42,0.19,0.72,0.43,0.92,0.73
			c0.2,0.29,0.3,0.63,0.3,1.01c0,0.38-0.11,0.74-0.33,1.07c-0.22,0.34-0.53,0.6-0.94,0.78c-0.41,0.19-0.87,0.28-1.38,0.28
			c-0.65,0-1.19-0.09-1.62-0.28c-0.44-0.19-0.78-0.47-1.03-0.85S211.25,88.15,211.24,87.67z"/>
	</g>
	<g>
		<path class="st38" d="M219.82,55.22V52.1h-1.11v-0.63h2.98v0.63h-1.11v3.12H219.82z"/>
		<path class="st38" d="M222.17,55.22v-3.75h1.13l0.68,2.56l0.67-2.56h1.14v3.75h-0.7v-2.95l-0.75,2.95h-0.73l-0.74-2.95v2.95
			H222.17z"/>
	</g>
</g>
</svg>
