<?xml version="1.0" encoding="utf-8"?>
<!-- Generator: Adobe Illustrator 23.0.1, SVG Export Plug-In . SVG Version: 6.00 Build 0)  -->
<svg version="1.1" id="Layer_1" xmlns="http://www.w3.org/2000/svg" xmlns:xlink="http://www.w3.org/1999/xlink" x="0px" y="0px"
	 viewBox="0 0 263 140" style="enable-background:new 0 0 263 140;" xml:space="preserve">
<style type="text/css">
	.st0{fill-rule:evenodd;clip-rule:evenodd;fill:#A7A7A8;}
	.st1{fill:#00AEEF;}
	.st2{fill:#D82927;}
	.st3{fill:#00A8C4;}
	.st4{fill:#B9BABC;}
	.st5{fill:#F05225;}
	.st6{fill:#80BB41;}
	.st7{fill:#787878;}
	.st8{fill:#35A0DA;}
	.st9{fill:#FDB813;}
	.st10{clip-path:url(#SVGID_2_);}
	.st11{clip-path:url(#SVGID_4_);}
	.st12{clip-path:url(#SVGID_6_);}
	.st13{clip-path:url(#SVGID_8_);}
	.st14{clip-path:url(#SVGID_10_);}
	.st15{clip-path:url(#SVGID_12_);}
	.st16{clip-path:url(#SVGID_14_);}
	.st17{clip-path:url(#SVGID_16_);}
	.st18{fill:#010101;}
	.st19{fill:#E1251B;}
	.st20{fill:#708FA6;}
	.st21{fill:#1D1D1B;}
	.st22{fill:#005596;}
	.st23{fill-rule:evenodd;clip-rule:evenodd;fill:#005596;}
	.st24{fill:#EA0029;}
	.st25{fill:#FFFFFF;}
	.st26{fill-rule:evenodd;clip-rule:evenodd;fill:#EE312F;}
	.st27{fill:#F79020;}
	.st28{fill:#231F20;stroke:#393738;stroke-width:0.0938;stroke-miterlimit:10;}
	.st29{fill:#FFFFFF;stroke:#FFFFFF;stroke-width:0.0938;stroke-miterlimit:10;}
	.st30{fill-rule:evenodd;clip-rule:evenodd;fill:#B42025;}
	.st31{fill-rule:evenodd;clip-rule:evenodd;fill:#010101;}
	.st32{fill-rule:evenodd;clip-rule:evenodd;fill:#737272;}
	.st33{fill-rule:evenodd;clip-rule:evenodd;fill:#D71F27;}
</style>
<rect class="st0" width="263" height="140"/>
<g>
	<rect x="135.76" y="44.73" class="st24" width="12.27" height="48.53"/>
	<path class="st24" d="M111.76,65.32c4.51-0.25,7.35,4.6,7.35,11.05c0,8.29-2.84,11.89-7.52,11.89c-4.43,0-7.51-3.6-7.51-11.89
		C104.08,71.43,105.83,65.32,111.76,65.32z M92.21,77.33c0,11.86,8.6,17.94,19.71,17.94c11.12,0,19.71-5.95,19.71-18.67
		c0-10.8-7.54-18.02-19.77-18.02C100.15,58.59,92.21,65.27,92.21,77.33z"/>
	<path class="st24" d="M172.78,86.81c-3.5,0-6.56-2.71-6.56-6.81h25.27c0.19-12.51-7.26-21.42-19.61-21.42
		c-10.68,0-18.87,7.32-18.87,18.63c0,11.69,8.26,18.06,18.93,18.06c7.77,0,16.17-2.85,18.46-11.47h-12.66
		C176.79,85.82,174.88,86.81,172.78,86.81z M178.25,72.97h-12.03C166.19,63.99,178.36,63.9,178.25,72.97z"/>
	<path class="st24" d="M62.12,93.26l0.01-21.3c0-3.32,2.69-6.01,6.01-6.01c3.32,0,6.02,2.69,6.02,6.01l-0.01,21.3l11.79,0
		l0.01-25.39c-0.19-2.4-2.54-5.92-5.36-7.48c-3.81-1.84-12.29-3.92-19.33,3.81c-2.26-2.4-5.08-4.23-8.18-5.08
		c-5.22-1.13-10.69,0.02-14.5,3.97c-0.53,0.44-0.94,1.5-0.9,0.62v-4.3H25.55v33.86h12.11V71.93c0-3.32,2.7-6.02,6.02-6.02
		c3.32,0,6.01,2.7,6.01,6.02l0,21.33H62.12z"/>
	<g>
		<g>
			<path class="st24" d="M233.27,61.04v-0.91h0.94c0.45,0,0.53,0.27,0.53,0.45c0,0.34-0.2,0.47-0.59,0.47H233.27z M232.52,62.96
				h0.75v-1.34h0.78c0.57,0,0.6,0.18,0.6,0.65c0,0.36,0.03,0.53,0.08,0.69h0.84v-0.09c-0.16-0.06-0.16-0.18-0.16-0.68
				c0-0.64-0.16-0.75-0.46-0.87c0.36-0.12,0.56-0.44,0.56-0.82c0-0.3-0.18-0.97-1.14-0.97h-1.84V62.96z"/>
		</g>
		<path class="st24" d="M230.51,61.3c0-1.92,1.55-3.47,3.47-3.47c1.92,0,3.47,1.55,3.47,3.47c0,1.92-1.55,3.47-3.47,3.47
			C232.07,64.77,230.51,63.21,230.51,61.3z M233.98,64.31c1.67,0,3.01-1.35,3.01-3.01c0-1.66-1.35-3.01-3.01-3.01
			c-1.66,0-3.01,1.35-3.01,3.01C230.97,62.96,232.32,64.31,233.98,64.31z"/>
	</g>
	<g>
		<path class="st24" d="M217.74,59.4l-5.78,8.21c-1.81-2.51-3.47-5.56-5.13-8.21h-13.64l10.65,15.71c0,0-7.94,11.82-12.15,18.14
			l11.91,0l6.65-10.72c1.1,1.59,3.68,6.59,6.25,10.72h13.13c-3.3-5.44-11.2-18.2-11.2-18.2c3.25-5.36,7.62-10.3,11-15.66H217.74z"/>
	</g>
</g>
</svg>
