<?xml version="1.0" encoding="utf-8"?>
<!-- Generator: Adobe Illustrator 23.0.1, SVG Export Plug-In . SVG Version: 6.00 Build 0)  -->
<svg version="1.1" id="Layer_1" xmlns="http://www.w3.org/2000/svg" xmlns:xlink="http://www.w3.org/1999/xlink" x="0px" y="0px"
	 viewBox="0 0 263 140" style="enable-background:new 0 0 263 140;" xml:space="preserve">
<style type="text/css">
	.st0{fill-rule:evenodd;clip-rule:evenodd;fill:#A7A7A8;}
	.st1{fill:#00AEEF;}
	.st2{fill:#D82927;}
	.st3{fill:#00A8C4;}
	.st4{fill:#B9BABC;}
	.st5{fill:#F05225;}
	.st6{fill:#80BB41;}
	.st7{fill:#787878;}
	.st8{fill:#35A0DA;}
	.st9{fill:#FDB813;}
	.st10{clip-path:url(#SVGID_2_);}
	.st11{clip-path:url(#SVGID_4_);}
	.st12{clip-path:url(#SVGID_6_);}
	.st13{clip-path:url(#SVGID_8_);}
	.st14{clip-path:url(#SVGID_10_);}
	.st15{clip-path:url(#SVGID_12_);}
	.st16{clip-path:url(#SVGID_14_);}
	.st17{clip-path:url(#SVGID_16_);}
	.st18{fill:#010101;}
	.st19{fill:#E1251B;}
	.st20{fill:#708FA6;}
	.st21{fill:#1D1D1B;}
	.st22{fill:#005596;}
	.st23{fill-rule:evenodd;clip-rule:evenodd;fill:#005596;}
	.st24{fill:#EA0029;}
	.st25{fill-rule:evenodd;clip-rule:evenodd;fill:#EE312F;}
	.st26{fill:#F79020;}
	.st27{fill:#231F20;stroke:#393738;stroke-width:0.0938;stroke-miterlimit:10;}
	.st28{fill:#FFFFFF;stroke:#FFFFFF;stroke-width:0.0938;stroke-miterlimit:10;}
	.st29{fill-rule:evenodd;clip-rule:evenodd;fill:#B42025;}
	.st30{fill-rule:evenodd;clip-rule:evenodd;fill:#010101;}
	.st31{fill-rule:evenodd;clip-rule:evenodd;fill:#737272;}
	.st32{fill-rule:evenodd;clip-rule:evenodd;fill:#D71F27;}
</style>
<rect class="st0" width="263" height="140"/>
<g>
	<path class="st26" d="M155.18,19.31c0.47,0.11,0.92,0.28,1.37,0.45c-0.53,1.6-1.52,2.99-2.31,4.44c-0.66,1.09-1.2,2.22-1.94,3.22
		c0.28-1.11,0.7-2.16,1.07-3.24C153.97,22.55,154.46,20.86,155.18,19.31L155.18,19.31z"/>
	<path class="st26" d="M159.17,21.61c0.36,0.28,0.73,0.58,1.07,0.9c-0.88,1.26-2.13,2.16-3.24,3.16c-1.02,0.88-1.96,1.84-3.07,2.6
		c0.53-0.96,1.3-1.77,1.94-2.65C156.95,24.28,157.94,22.83,159.17,21.61L159.17,21.61z"/>
	<path class="st27" d="M135.97,24.32c0.36-0.06,0.9-0.3,1.09,0.17c0.62,0.98,1.07,2.05,1.71,2.99c0.43,0.66,1.22,1.02,2.01,1.07
		c2.45-0.02,4.85-0.75,7.28-1.02c1.09-0.19,1.75,1.41,0.92,2.11c-1.77,1.49-4.23,2.03-5.87,3.71c-0.45,0.38,0.02,0.92,0.26,1.28
		c1.22,1.41,2.65,2.63,3.84,4.06c0.36,0.47,0.88,1.05,0.6,1.66c-0.32,0.62-1.13,0.83-1.73,0.51c-1.92-0.85-3.65-2.03-5.49-3.03
		c-0.36-0.19-0.83-0.34-1.24-0.19c-0.36,0.19-0.49,0.64-0.68,0.96c-2.16-1.84-4.44-3.74-5.63-6.36c0.6-0.26,1.43-0.47,1.58-1.24
		c0.23-1.26-0.51-2.39-1-3.48c-0.26-0.77-1.24-0.36-1.84-0.51c-0.11-0.83,0.62-1.39,1.22-1.86c0.36-0.26,1-0.51,1.34-0.06
		c0.98,1.22,1.41,2.77,2.39,3.97c0.41,0,0.73-0.43,0.53-0.79C136.8,26.97,135.82,25.77,135.97,24.32L135.97,24.32z"/>
	<path class="st26" d="M158.53,27.46c1.26-0.81,2.48-1.69,3.84-2.33c0.26,0.38,0.51,0.79,0.73,1.22c-1.2,0.79-2.54,1.24-3.84,1.79
		c-1.47,0.6-2.92,1.24-4.4,1.79C156.04,29.04,157.32,28.29,158.53,27.46L158.53,27.46z"/>
	<path class="st26" d="M130.68,33.07c0.62-0.6,1.49-0.9,2.35-0.83c1.2,2.63,3.48,4.52,5.63,6.36c0.49,0.41,0.96,0.81,1.45,1.22
		c-0.21,0.28-0.43,0.55-0.64,0.81c-0.21-0.11-0.41-0.21-0.6-0.32C135.89,38.17,133.28,35.61,130.68,33.07L130.68,33.07z"/>
	<path class="st27" d="M116.57,34.99c4.76,0.36,9.61-0.32,14.11-1.92c2.6,2.54,5.21,5.1,8.2,7.24c0.9,5.85,1.96,11.68,3.05,17.48
		c0.28,1.3,0.36,2.8,1.39,3.8c0.66,0.66,1.66,0.58,2.5,0.88c0.45,0.26,0.43,0.77,0.34,1.2c-1.24,0.3-2.75,0.41-3.71-0.58
		c-1.69-1.62-1.86-4.1-2.28-6.28c-0.55-2.97-0.88-6-1.69-8.92c-0.21-0.64-0.32-1.41-0.9-1.86c-0.36,0.21-0.26,0.66-0.26,1
		c0.36,4.55,0.3,9.16,1.07,13.68c0.26,1.09,0.41,2.41,1.39,3.12c0.62,0.53,1.58,0.81,1.71,1.73c-0.88,0.47-2.03,0.45-2.77-0.23
		c-1-0.9-1.54-2.22-1.81-3.52c-0.51-3.99-0.96-8-1.75-11.95c-0.15-0.83-0.43-1.71-1.02-2.35c-0.96-1.09-2.41-1.64-3.82-1.9
		c-2.18-0.38-4.4-0.73-6.62-0.47c-0.83,0.09-1.62,0.55-2.07,1.3c-1.02,1.62-1.22,3.61-1.3,5.51c-0.06,3.2-0.21,6.4-0.28,9.61
		c0.04,0.75-0.04,1.66,0.64,2.18c0.6,0.49,0.77,1.3,0.64,2.05c-1.13,0.04-2.31-0.66-2.75-1.69c-0.21-1.13,0.04-2.26,0-3.39
		c-0.13-3.78-0.36-7.53-0.55-11.31c-0.13-0.73,0.73-1.34,0.36-2.09c-0.21-0.36-0.53-0.88-1.02-0.68c-0.28,0.28-0.36,0.68-0.41,1.07
		c-0.36,4.2-0.73,8.39-1.09,12.59c-0.06,0.7-0.19,1.41-0.13,2.13c0.34,0.83,1.3,1.39,1.32,2.37c0,0.36,0.04,0.94-0.41,1.05
		c-0.94-0.15-1.69-0.9-2.07-1.71c-0.49-1.15-0.55-2.43-0.38-3.65c0.15-1.41,0.02-2.84,0.02-4.25c-0.06-3.42-0.26-6.83-0.32-10.22
		c0.45-0.83,1.22-1.47,1.45-2.41c0.36-1.43,0.43-2.92,0.19-4.38c-0.21-1.28-1.13-2.26-1.79-3.31c-0.26-0.32-0.21-0.73-0.19-1.11
		C114.54,34.48,115.54,34.97,116.57,34.99L116.57,34.99z"/>
	<path class="st27" d="M140.11,39.82c0.45,0,0.96-0.15,1.34,0.15c0.47,0.3,0.62,0.94,0.49,1.45c-0.17,0.26-0.38,0.51-0.58,0.77
		c-0.49,0.09-1.09,0.15-1.49-0.23c-0.41-0.3-0.38-0.85-0.41-1.32C139.69,40.37,139.9,40.09,140.11,39.82L140.11,39.82z"/>
	<path class="st26" d="M140.11,40.99c-0.06-0.6,0.53-0.7,1-0.75l-0.11,0.17C140.71,40.63,140.41,40.82,140.11,40.99L140.11,40.99z"
		/>
	<path class="st28" d="M141.01,40.42c0.62,0.06,0.53,1.15-0.06,1.26c-0.47,0.23-0.77-0.26-1.02-0.58l0.19-0.11
		C140.41,40.82,140.71,40.63,141.01,40.42L141.01,40.42z"/>
	<path class="st26" d="M141.37,42.19c0.19-0.26,0.41-0.51,0.58-0.77c0.88,1.62,1.81,3.24,2.43,4.99c0.53,1.45,0.21,2.99,0,4.46
		c-0.36,2.48,0.38,4.95,1.32,7.24c1.17,2.95,3.22,5.68,6.1,7.15c1.34,0.68,3.14,1.02,4.46,0.06c0.28-0.26,0.75-0.53,0.58-0.98
		c-0.32-0.77-1.11-1.17-1.81-1.47c-1.88-0.77-3.97-1-5.93-0.53c2.07-1,4.59-0.98,6.68,0.02c0.73,0.34,1.43,1.05,1.34,1.92
		c-0.26,1.37-1.45,2.58-2.9,2.6c-2.31,0.13-4.35-1.28-5.91-2.86c-1.66-1.66-2.75-3.82-3.56-6.02c-0.6-1.66-1.07-3.42-1.02-5.21
		c0.04-1.64,0.68-3.27,0.26-4.91C143.46,45.84,142.2,44.11,141.37,42.19L141.37,42.19z"/>
	<path class="st27" d="M133.94,72.56c1.56-0.02,3.09-0.06,4.65,0.02c-0.02,10.78,0,21.56-0.02,32.34c-1.54,0.02-3.07,0-4.63,0
		C133.94,94.14,133.94,83.34,133.94,72.56L133.94,72.56z"/>
	<path class="st27" d="M49.42,79.82c3.63-0.04,7.26,0,10.89-0.02c3.09,0,6.51,0.36,8.92,2.5c2.86,2.45,3.24,7.02,1.26,10.12
		c-1.39,2.09-3.95,3.05-6.36,3.2c3.03,3.14,6.19,6.17,9.26,9.28c-2.28,0.04-4.59,0.06-6.87,0c-1.64-1.47-3.07-3.2-4.57-4.87
		c-2.13-2.43-4.33-4.78-6.4-7.26c2.43-0.04,4.91,0.09,7.28-0.55c1.2-0.34,2.41-0.88,3.24-1.86c1-1.22,1.15-3.05,0.34-4.4
		c-0.75-1.3-2.18-2.05-3.59-2.41c-1.64-0.47-3.37-0.32-5.08-0.34c-1.2,0.02-2.39-0.04-3.59,0.04c0.02,7.21,0.02,14.45,0,21.66
		c-1.58,0.02-3.16,0.02-4.74,0C49.42,96.55,49.42,88.18,49.42,79.82L49.42,79.82z"/>
	<path class="st27" d="M110.38,81.74c2.65-1.62,5.93-2.07,8.96-1.52c4.38,0.83,8.26,4.2,9.46,8.52c-1.71,0.04-3.39,0.02-5.08,0.02
		c-0.73-1.45-1.71-2.82-3.14-3.63c-2.03-1.15-4.61-1.17-6.77-0.36c-2.18,0.81-3.74,2.82-4.4,4.99c-1.05,3.29-0.28,7.24,2.26,9.63
		c2.71,2.6,7.45,2.63,10.18,0.02c0.79-0.7,1.34-1.6,1.84-2.54c1.69,0,3.39-0.02,5.08,0.02c-1,3.29-3.48,6.08-6.6,7.51
		c-2.88,1.34-6.25,1.49-9.28,0.58c-2.58-0.79-4.82-2.52-6.3-4.76c-2.35-3.48-2.88-8.05-1.47-11.97
		C106.07,85.56,107.93,83.19,110.38,81.74L110.38,81.74z"/>
	<path class="st27" d="M191.85,80.82c2.28-0.83,4.82-0.92,7.15-0.19c1.71,0.53,3.37,1.52,4.42,3.01c0.68,0.96,1.05,2.16,1.02,3.35
		c-1.71,0-3.42,0.04-5.12-0.02c-0.26-1.15-0.98-2.22-2.13-2.63c-1.47-0.51-3.33-0.38-4.48,0.75c-0.88,0.85-0.9,2.43-0.02,3.31
		c0.64,0.64,1.54,0.96,2.39,1.22c1.39,0.41,2.8,0.68,4.14,1.2c1.9,0.68,3.76,1.73,4.89,3.46c1.49,2.24,1.3,5.38-0.21,7.56
		c-1.15,1.64-2.99,2.71-4.89,3.2c-2.92,0.75-6.13,0.45-8.84-0.9c-1.45-0.7-2.77-1.79-3.59-3.22c-0.66-1.15-0.96-2.5-0.94-3.82
		c1.69,0,3.37,0,5.04-0.02c0.28,1.2,0.6,2.48,1.58,3.29c1.66,1.34,4.14,1.49,6.02,0.56c1.52-0.73,2.26-2.82,1.3-4.27
		c-0.85-1.17-2.33-1.67-3.65-2.11c-2.45-0.79-5.14-1.32-7.15-3.07c-1.92-1.66-2.41-4.65-1.28-6.92
		C188.37,82.78,190.04,81.5,191.85,80.82L191.85,80.82z"/>
	<path class="st27" d="M158.51,80.63c1.52,0.02,3.05,0.02,4.57,0.02c0,3.8,0,7.62,0,11.42c-0.02,2.33-0.11,4.82,1.11,6.89
		c0.75,1.32,2.2,2.13,3.69,2.31c1.99,0.3,4.2-0.13,5.64-1.64c1.41-1.49,1.86-3.65,1.9-5.64c-0.02-4.44,0-8.88-0.02-13.3
		c1.54-0.06,3.07-0.06,4.61,0c-0.02,8.07,0,16.14,0,24.23c-1.39,0.02-2.8,0.02-4.16,0c-0.02-0.83,0-1.66-0.04-2.5
		c-1.02,1.37-2.52,2.35-4.18,2.75c-3.59,0.94-7.83,0.21-10.48-2.52c-2.01-2.05-2.56-5.04-2.65-7.81
		C158.51,90.11,158.47,85.37,158.51,80.63L158.51,80.63z"/>
	<path class="st27" d="M77.17,80.67c1.52-0.04,3.05-0.02,4.57,0c0.04,4.42,0,8.84,0.02,13.26c0.06,2.01,0.3,4.18,1.66,5.76
		c1.17,1.37,3.12,1.75,4.85,1.64c1.6-0.09,3.22-0.75,4.25-2.03c1.28-1.62,1.58-3.76,1.62-5.76c0.02-4.29-0.02-8.58,0.02-12.87
		c1.52-0.02,3.05-0.02,4.57,0c0,8.07,0,16.16,0,24.25c-1.41,0.02-2.82,0.02-4.23,0c0.02-0.83,0.02-1.64-0.02-2.48
		c-1.02,1.37-2.52,2.33-4.16,2.73c-3.61,0.94-7.83,0.21-10.48-2.54c-2.09-2.16-2.6-5.31-2.67-8.22
		C77.17,89.83,77.17,85.24,77.17,80.67L77.17,80.67z"/>
	<path class="st27" d="M141.03,92.45c2.73-3.95,5.53-7.85,8.3-11.78c1.88-0.02,3.78-0.04,5.66,0c-2.82,3.86-5.83,7.6-8.71,11.42
		c3.33,4.31,6.81,8.5,10.12,12.83c-1.79,0.02-3.59,0.02-5.38,0c-0.38,0.06-0.58-0.3-0.79-0.56
		C147.18,100.39,144.1,96.42,141.03,92.45L141.03,92.45z"/>
	<path class="st27" d="M206.81,83.02c0.66-0.06,1.3-0.06,1.96,0c0.06,0.09,0.19,0.23,0.26,0.32c-0.32,0.09-0.66,0.17-0.98,0.23
		c0.02,0.85,0,1.69,0,2.52c-0.13,0-0.38,0-0.51,0c-0.02-0.83-0.02-1.66,0-2.52c-0.34-0.06-0.66-0.15-0.98-0.23
		C206.62,83.25,206.75,83.1,206.81,83.02L206.81,83.02z"/>
	<path class="st27" d="M210.17,82.76c0.47,0.77,0.85,1.58,1.3,2.37c0.49-0.75,0.77-1.62,1.34-2.31c0.28,1.09,0.51,2.18,0.77,3.29
		c-0.15-0.02-0.45-0.04-0.6-0.06c-0.13-0.58-0.26-1.13-0.38-1.71c-0.41,0.62-0.75,1.3-1.09,1.96c-0.41-0.62-0.75-1.28-1.09-1.94
		c-0.23,0.55-0.32,1.15-0.53,1.71c-0.13,0.02-0.36,0.04-0.49,0.04C209.61,85,209.85,83.87,210.17,82.76L210.17,82.76z"/>
	<path class="st27" d="M146.09,112.24c0.73,0,1.43,0,2.13-0.02c0.06,2.28-0.02,4.59,0.04,6.87c1.17-0.02,2.33-0.02,3.5,0
		c0,0.47,0,0.94,0,1.41c-1.9,0.02-3.8,0.02-5.7,0C146.07,117.75,146,114.99,146.09,112.24L146.09,112.24z"/>
	<path class="st27" d="M155.93,112.24c2.05,0,4.12,0,6.17-0.02c0.02,0.51,0.02,1.02,0,1.54c-1.34-0.02-2.69-0.04-4.03,0
		c0,0.62,0,1.26,0,1.88c1.28,0.02,2.56,0.02,3.86,0c0.04,0.51,0.04,1.02,0,1.54c-1.3-0.02-2.58-0.04-3.86,0c0,0.62,0,1.26,0,1.88
		c1.34,0.02,2.69,0.02,4.03,0c0.02,0.49,0.02,0.98,0.02,1.45c-2.07,0.02-4.16,0.02-6.23,0
		C155.89,117.75,155.82,114.99,155.93,112.24L155.93,112.24z"/>
	<path class="st27" d="M167.43,112.94c1.3-1.09,3.27-1.11,4.76-0.43c0.79,0.34,1.28,1.11,1.45,1.94c-0.73-0.02-1.54,0.17-2.22-0.09
		c-0.41-0.88-1.71-1.15-2.37-0.41c-0.3,0.38-0.06,0.94,0.38,1.09c1.26,0.51,2.8,0.51,3.82,1.52c0.92,0.85,0.75,2.52-0.26,3.24
		c-1.15,0.9-2.75,1-4.16,0.75c-1.2-0.26-2.45-1.11-2.54-2.43c0.73-0.02,1.45-0.02,2.2-0.02c0.43,1.22,2.09,1.47,2.97,0.6
		c0.38-0.41,0.19-1.11-0.32-1.3c-1.17-0.6-2.63-0.58-3.69-1.43C166.49,115.27,166.52,113.69,167.43,112.94L167.43,112.94z"/>
	<path class="st27" d="M177.96,114.29c0.06-1.11,1.15-1.84,2.13-2.07c1.39-0.32,3.05-0.17,4.12,0.88c0.38,0.36,0.51,0.88,0.64,1.37
		c-0.73,0.04-1.45,0.02-2.18,0c-0.34-0.9-1.49-1.22-2.24-0.64c-0.45,0.28-0.34,1.02,0.15,1.2c0.98,0.47,2.11,0.49,3.07,1
		c0.81,0.36,1.52,1.15,1.43,2.09c0.02,1.24-1.09,2.09-2.18,2.37c-1.52,0.41-3.27,0.28-4.53-0.7c-0.53-0.38-0.75-1.02-0.92-1.62
		c0.77-0.06,1.52-0.04,2.28-0.02c0.38,1.2,2.01,1.41,2.88,0.64c0.41-0.36,0.32-1.13-0.19-1.34c-1.13-0.6-2.52-0.6-3.59-1.3
		C178.23,115.74,177.87,114.99,177.96,114.29L177.96,114.29z"/>
	<path class="st27" d="M97.06,112.26c0.7-0.02,1.41-0.04,2.11-0.02c0.26,0.17,0.26,0.53,0.38,0.79c0.55,1.62,1.13,3.24,1.69,4.87
		c0.73-1.86,1.3-3.76,1.96-5.64c0.55-0.02,1.11-0.02,1.66,0c0.6,1.9,1.26,3.78,1.86,5.66c0.75-1.86,1.34-3.78,2.03-5.68
		c0.75,0,1.47,0,2.22,0.02c-1.05,2.77-2.22,5.49-3.31,8.24c-0.6-0.04-1.26,0.17-1.79-0.11c-0.68-1.73-1.17-3.52-1.86-5.25
		c-0.62,1.79-1.24,3.59-1.88,5.38c-0.58,0-1.15,0-1.73-0.02C99.28,117.77,98.13,115.01,97.06,112.26L97.06,112.26z"/>
	<path class="st27" d="M115.2,112.28c0.73-0.06,1.45-0.06,2.18-0.02c0.02,2.73,0.04,5.49,0,8.24c-0.73,0.02-1.45,0.02-2.18,0
		C115.2,117.75,115.22,115.01,115.2,112.28L115.2,112.28z"/>
	<path class="st27" d="M127.35,117.51c0.73-0.19,1.54-0.36,2.11-0.9c0.75-0.66,1.13-1.86,0.6-2.77c-0.64-1.09-1.94-1.56-3.16-1.58
		c-1.43-0.04-2.88-0.02-4.31,0c-0.02,2.73-0.02,5.49,0,8.24c0.73,0.02,1.45,0.02,2.18,0c0-1,0-2.03,0.02-3.05
		c1.02,0.98,1.92,2.11,3.01,3.03c0.85,0.09,1.73,0.02,2.58,0C129.4,119.45,128.37,118.49,127.35,117.51z M124.77,116.19v-2.43
		c1,0.02,2.2-0.26,3.03,0.47c0.53,0.43,0.34,1.28-0.21,1.6C126.75,116.32,125.71,116.17,124.77,116.19z"/>
	<path class="st27" d="M134.63,112.28c2.11-0.06,4.23-0.06,6.32,0c0,0.47-0.02,0.96-0.02,1.45c-1.37,0-2.73-0.02-4.08,0.02
		c-0.02,0.62-0.02,1.24-0.02,1.86c1.3,0.11,2.6-0.02,3.91,0.09c0,0.49-0.02,0.96-0.02,1.45c-1.28,0-2.58,0-3.86,0.02
		c-0.02,0.62-0.02,1.24-0.02,1.86c1.37,0.11,2.75-0.02,4.12,0.09c0,0.45-0.02,0.92,0,1.37c-2.11,0.04-4.2,0.04-6.32,0.02
		C134.63,117.75,134.65,115.01,134.63,112.28L134.63,112.28z"/>
</g>
</svg>
