<?xml version="1.0" encoding="utf-8"?>
<!-- Generator: Adobe Illustrator 23.0.1, SVG Export Plug-In . SVG Version: 6.00 Build 0)  -->
<svg version="1.1" id="Layer_1" xmlns="http://www.w3.org/2000/svg" xmlns:xlink="http://www.w3.org/1999/xlink" x="0px" y="0px"
	 viewBox="0 0 263 140" style="enable-background:new 0 0 263 140;" xml:space="preserve">
<style type="text/css">
	.st0{fill-rule:evenodd;clip-rule:evenodd;fill:#A7A7A8;}
	.st1{fill:#00AEEF;}
	.st2{fill:#D82927;}
	.st3{fill:#00A8C4;}
	.st4{fill:#B9BABC;}
	.st5{fill:#F05225;}
	.st6{fill:#80BB41;}
	.st7{fill:#787878;}
	.st8{fill:#35A0DA;}
	.st9{fill:#FDB813;}
	.st10{clip-path:url(#SVGID_2_);}
	.st11{clip-path:url(#SVGID_4_);}
	.st12{clip-path:url(#SVGID_6_);}
	.st13{clip-path:url(#SVGID_8_);}
	.st14{clip-path:url(#SVGID_10_);}
	.st15{clip-path:url(#SVGID_12_);}
	.st16{clip-path:url(#SVGID_14_);}
	.st17{clip-path:url(#SVGID_16_);}
	.st18{fill:#010101;}
	.st19{fill:#E1251B;}
	.st20{fill:#708FA6;}
	.st21{fill:#1D1D1B;}
	.st22{fill:#005596;}
	.st23{fill-rule:evenodd;clip-rule:evenodd;fill:#005596;}
	.st24{fill:#EA0029;}
	.st25{fill:#FFFFFF;}
	.st26{fill-rule:evenodd;clip-rule:evenodd;fill:#EE312F;}
	.st27{fill:#F79020;}
	.st28{fill:#231F20;stroke:#393738;stroke-width:0.0938;stroke-miterlimit:10;}
	.st29{fill:#FFFFFF;stroke:#FFFFFF;stroke-width:0.0938;stroke-miterlimit:10;}
	.st30{fill-rule:evenodd;clip-rule:evenodd;fill:#B42025;}
	.st31{fill-rule:evenodd;clip-rule:evenodd;fill:#010101;}
	.st32{fill-rule:evenodd;clip-rule:evenodd;fill:#737272;}
	.st33{fill-rule:evenodd;clip-rule:evenodd;fill:#D71F27;}
</style>
<rect class="st0" width="263" height="140"/>
<g id="Слой_x0020_1">
	<g id="_195629184">
		<path class="st30" d="M130.3,32.14c13.79,0,25.85,6.48,32.5,16.17c-7.8-5.81-19.47-9.5-32.5-9.5c-13.04,0-24.7,3.69-32.5,9.5
			C104.45,38.61,116.52,32.14,130.3,32.14z"/>
		<path class="st31" d="M61.54,58.43c0,8.36-0.33,26.47,0.15,33.69c0.36,5.36,2.53,9.08,5.35,11.48c9.66,8.25,34.36,2.34,34.36,0.11
			l0.02-48.08h-10.3l-0.11,42.17c-3.97,1.24-9.55,2.15-13.81,0.63c-4.48-1.6-5.27-5.29-5.27-10.86V55.54H57.16L61.54,58.43z"/>
		<path class="st31" d="M112.21,58.72v47.49v0.62h0.62l9.67-0.03l0.11-42.36c5.05-1.18,4.68-1.4,9.99-1.4c4.3,0,7.33,1.99,8.68,4.74
			c1.64,3.34,0.96,6.98,1.09,12.31l-0.01,26.74h10.36l0.11-35.6c0-9.48-6.13-14.74-14.55-16.13c-7.64-1.25-16.35-0.26-23.67,2.22
			c-0.66,0.23-2.32,0.81-2.4,0.94V58.72z"/>
		<polygon class="st31" points="175.56,106.89 187.61,106.9 205.84,55.54 194.28,55.54 181.51,96.19 168.82,55.56 153.08,55.56 
			158.48,58.93 		"/>
	</g>
</g>
</svg>
