<?xml version="1.0" encoding="utf-8"?>
<!-- Generator: Adobe Illustrator 23.0.1, SVG Export Plug-In . SVG Version: 6.00 Build 0)  -->
<svg version="1.1" id="Layer_1" xmlns="http://www.w3.org/2000/svg" xmlns:xlink="http://www.w3.org/1999/xlink" x="0px" y="0px"
	 viewBox="0 0 478.08 106.94" style="enable-background:new 0 0 478.08 106.94;" xml:space="preserve">
<style type="text/css">
	.st0{fill:#FFFFFF;stroke:#231F20;stroke-miterlimit:10;}
	.st1{fill:url(#SVGID_1_);}
	.st2{fill:url(#SVGID_2_);}
	.st3{fill:url(#SVGID_3_);}
	.st4{fill:url(#SVGID_4_);}
	.st5{fill:url(#SVGID_5_);}
	.st6{fill:url(#SVGID_6_);}
	.st7{fill:url(#SVGID_7_);}
	.st8{fill:url(#SVGID_8_);}
	.st9{fill:url(#SVGID_9_);}
	.st10{fill:url(#SVGID_10_);}
	.st11{fill:url(#SVGID_11_);}
	.st12{fill:url(#SVGID_12_);}
	.st13{fill:url(#SVGID_13_);}
	.st14{fill:url(#SVGID_14_);}
	.st15{fill:url(#SVGID_15_);}
	.st16{fill:url(#SVGID_16_);}
	.st17{fill:url(#SVGID_17_);}
	.st18{fill:url(#SVGID_18_);}
	.st19{fill:url(#SVGID_19_);}
	.st20{fill:url(#SVGID_20_);}
	.st21{fill:url(#SVGID_21_);}
	.st22{fill:url(#SVGID_22_);}
	.st23{fill:url(#SVGID_23_);}
	.st24{fill:url(#SVGID_24_);}
	.st25{fill:url(#SVGID_25_);}
	.st26{fill:url(#SVGID_26_);}
	.st27{fill:url(#SVGID_27_);}
	.st28{fill:url(#SVGID_28_);}
	.st29{fill:url(#SVGID_29_);}
	.st30{fill:url(#SVGID_30_);}
	.st31{fill:url(#SVGID_31_);}
	.st32{fill:url(#SVGID_32_);}
	.st33{fill:url(#SVGID_33_);}
	.st34{fill:url(#SVGID_34_);}
	.st35{fill:url(#SVGID_35_);}
	.st36{fill:url(#SVGID_36_);}
	.st37{fill:url(#SVGID_37_);}
	.st38{fill:url(#SVGID_38_);}
	.st39{fill:url(#SVGID_39_);}
	.st40{fill:url(#SVGID_40_);}
	.st41{fill:url(#SVGID_41_);}
	.st42{fill:url(#SVGID_42_);}
	.st43{fill:url(#SVGID_43_);}
	.st44{fill:url(#SVGID_44_);}
	.st45{fill:url(#SVGID_45_);}
	.st46{fill:url(#SVGID_46_);}
	.st47{fill:url(#SVGID_47_);}
	.st48{fill:url(#SVGID_48_);}
	.st49{fill:url(#SVGID_49_);}
	.st50{fill:url(#SVGID_50_);}
	.st51{fill:url(#SVGID_51_);}
	.st52{fill:url(#SVGID_52_);}
	.st53{fill:url(#SVGID_53_);}
	.st54{fill:url(#SVGID_54_);}
	.st55{fill:url(#SVGID_55_);}
	.st56{fill:url(#SVGID_56_);}
	.st57{fill:url(#SVGID_57_);}
	.st58{fill:url(#SVGID_58_);}
	.st59{fill:url(#SVGID_59_);}
	.st60{fill:url(#SVGID_60_);}
	.st61{fill:url(#SVGID_61_);}
	.st62{fill:url(#SVGID_62_);}
	.st63{fill:url(#SVGID_63_);}
	.st64{fill:url(#SVGID_64_);}
	.st65{fill:url(#SVGID_65_);}
	.st66{fill:url(#SVGID_66_);}
	.st67{fill:url(#SVGID_67_);}
	.st68{fill:url(#SVGID_68_);}
	.st69{fill:url(#SVGID_69_);}
	.st70{fill:url(#SVGID_70_);}
	.st71{fill:url(#SVGID_71_);}
	.st72{fill:url(#SVGID_72_);}
	.st73{fill:url(#SVGID_73_);}
	.st74{fill:url(#SVGID_74_);}
	.st75{fill:url(#SVGID_75_);}
	.st76{fill:url(#SVGID_76_);}
	.st77{fill:url(#SVGID_77_);}
	.st78{fill:url(#SVGID_78_);}
	.st79{fill:url(#SVGID_79_);}
	.st80{fill:url(#SVGID_80_);}
	.st81{fill:url(#SVGID_81_);}
	.st82{fill:url(#SVGID_82_);}
	.st83{fill:url(#SVGID_83_);}
	.st84{fill:url(#SVGID_84_);}
	.st85{fill:url(#SVGID_85_);}
	.st86{fill:url(#SVGID_86_);}
	.st87{fill:url(#SVGID_87_);}
	.st88{fill:url(#SVGID_88_);}
	.st89{fill:url(#SVGID_89_);}
	.st90{fill:url(#SVGID_90_);}
	.st91{fill:url(#SVGID_91_);}
	.st92{fill:url(#SVGID_92_);}
	.st93{fill:url(#SVGID_93_);}
	.st94{fill:url(#SVGID_94_);}
	.st95{fill:url(#SVGID_95_);}
	.st96{fill:url(#SVGID_96_);}
	.st97{fill:url(#SVGID_97_);}
	.st98{fill:url(#SVGID_98_);}
	.st99{fill:url(#SVGID_99_);}
	.st100{fill:url(#SVGID_100_);}
	.st101{fill:url(#SVGID_101_);}
	.st102{fill:url(#SVGID_102_);}
	.st103{fill:url(#SVGID_103_);}
	.st104{fill:url(#SVGID_104_);}
	.st105{fill:url(#SVGID_105_);}
	.st106{fill:url(#SVGID_106_);}
	.st107{fill:url(#SVGID_107_);}
	.st108{fill:#0070A9;}
	.st109{fill:#FFFFFF;}
	.st110{fill:#444444;}
	.st111{fill:#46C3E8;}
</style>
<g>
	<g>
		<path class="st109" d="M374.78,92.07l0.81-1.83c1.01,0.81,2.63,1.39,4.18,1.39c1.97,0,2.81-0.71,2.81-1.65
			c0-2.73-7.53-0.94-7.53-5.65c0-2.04,1.63-3.78,5.1-3.78c1.52,0,3.11,0.4,4.22,1.12l-0.74,1.83c-1.14-0.67-2.39-1-3.49-1
			c-1.96,0-2.75,0.76-2.75,1.72c0,2.7,7.51,0.94,7.51,5.59c0,2.03-1.65,3.76-5.12,3.76C377.8,93.59,375.83,92.98,374.78,92.07z"/>
		<path class="st109" d="M395.57,88.94v4.47h-2.35v-4.43l-4.98-8.23h2.52l3.71,6.17l3.75-6.17h2.32L395.57,88.94z"/>
		<path class="st109" d="M403.88,92.07l0.81-1.83c1.01,0.81,2.62,1.39,4.18,1.39c1.97,0,2.81-0.71,2.81-1.65
			c0-2.73-7.53-0.94-7.53-5.65c0-2.04,1.63-3.78,5.1-3.78c1.52,0,3.11,0.4,4.22,1.12l-0.74,1.83c-1.14-0.67-2.39-1-3.49-1
			c-1.96,0-2.75,0.76-2.75,1.72c0,2.7,7.51,0.94,7.51,5.59c0,2.03-1.65,3.76-5.12,3.76C406.9,93.59,404.92,92.98,403.88,92.07z"/>
		<path class="st109" d="M421.86,82.74h-4.2v-1.99h10.75v1.99h-4.2v10.68h-2.35V82.74z"/>
		<path class="st109" d="M442.83,91.44v1.97h-9.5V80.74h9.25v1.97h-6.89v3.29h6.12v1.94h-6.12v3.49H442.83z"/>
		<path class="st109" d="M460.24,93.41l-0.02-8.4l-4.16,6.95h-1.05l-4.16-6.84v8.29h-2.24V80.74h1.94l5.03,8.4l4.94-8.4h1.94
			l0.02,12.67H460.24z"/>
		<path class="st109" d="M467.96,92.07l0.81-1.83c1.01,0.81,2.62,1.39,4.18,1.39c1.97,0,2.81-0.71,2.81-1.65
			c0-2.73-7.53-0.94-7.53-5.65c0-2.04,1.63-3.78,5.1-3.78c1.52,0,3.11,0.4,4.22,1.12l-0.74,1.83c-1.14-0.67-2.39-1-3.49-1
			c-1.96,0-2.75,0.76-2.75,1.72c0,2.7,7.51,0.94,7.51,5.59c0,2.03-1.65,3.76-5.12,3.76C470.98,93.59,469.01,92.98,467.96,92.07z"/>
	</g>
	<g>
		<g>
			<path class="st109" d="M52.87,98.02c-1.81,0-3.37,1.09-4.07,2.64c-9.98-0.48-19.17-4.11-26.59-9.91
				c-0.94-1.04-2.25-3.06-1.23-5.47c1.15-2.73,2.86-3.93,4.67-5.2c1.07-0.75,2.17-1.52,3.11-2.6c1.12-1.29,1.76-3.01,2.37-4.67
				c0.35-0.95,1.17-3.18,1.58-3.2c0.55,0.14,1.87,1.79,2.75,2.88c2.05,2.55,4.6,5.73,8.44,7.12c1.57,0.57,3.18,0.7,4.6,0.81
				c1.16,0.09,2.35,0.19,2.92,0.52c0.95,0.56,2.18,0.24,2.75-0.71c0.56-0.95,0.24-2.18-0.71-2.75c-1.36-0.8-3.03-0.94-4.63-1.07
				c-1.22-0.1-2.49-0.2-3.55-0.59c-2.79-1.01-4.86-3.59-6.69-5.87c-1.92-2.39-3.58-4.44-5.96-4.37c-3.15,0.12-4.32,3.28-5.25,5.82
				c-0.49,1.32-0.99,2.69-1.63,3.43c-0.61,0.7-1.43,1.28-2.38,1.95c-1.99,1.39-4.46,3.13-6.06,6.92c-0.29,0.68-0.47,1.35-0.58,2
				c-7.87-8.42-12.7-19.7-12.7-32.05c0-2.17,0.16-4.31,0.45-6.4c0.27,0.08,0.53,0.16,0.79,0.23c2.7,0.78,3.75,1.22,4.02,2.78
				c0.7,4.08,6.84,12.11,13.08,14.3c1.15,0.4,2.17,0.57,3.09,0.57c2.1,0,3.62-0.87,4.63-1.76c2.97-2.63,0.06-6.65-2.75-10.55
				c-1.12-1.55-3.16-4.38-3.26-5.45c0.04-0.02,0.08-0.03,0.13-0.05c1.94-0.63,3.01-0.56,3.96-0.5c2.77,0.18,4.16-0.49,6.94-4.83
				c1.81-2.82,5.57-3.67,8.88-4.42c3.25-0.73,6.94-1.56,6.94-5c0-2.53-1.79-5.26-4.68-7.12c-3.3-2.13-7.1-2.58-10.15-1.2
				c-2,0.9-3.31,0.45-3.66,0.29c-0.41-0.19-0.55-0.4-0.56-0.4c0.01-0.04,0.11-0.22,0.42-0.46c2.5-1.87,5.27-6.01,3.97-8.92
				c-0.48-1.06-1.83-2.74-5.56-1.99c-1.08,0.22-2.21,0.3-3.31,0.27c6.41-3.76,13.77-6.06,21.62-6.4c0.77,1.34,2.21,2.25,3.87,2.25
				c2.46,0,4.46-2,4.46-4.46c0-2.46-2-4.46-4.46-4.46c-1.82,0-3.39,1.1-4.08,2.66C35.92,3.23,23.9,8.53,14.78,17.74
				C5.25,27.36,0,40.12,0,53.67C0,67.22,5.25,79.98,14.78,89.6c1.59,1.61,3.28,3.08,5.04,4.45c0.26,0.25,0.52,0.47,0.76,0.66
				c0.13,0.1,0.28,0.18,0.42,0.24c8.13,5.94,17.79,9.33,27.99,9.73c0.77,1.35,2.22,2.26,3.87,2.26c2.46,0,4.46-2,4.46-4.46
				C57.33,100.02,55.33,98.02,52.87,98.02z M22.56,16.31c2.71,0.87,5.9,1.03,8.92,0.42c0.54-0.11,0.89-0.12,1.1-0.11
				c-0.11,0.83-1.12,2.69-2.69,3.87c-2.31,1.73-2.39,4.11-1.45,5.7c1.34,2.27,5.07,3.66,9.32,1.74c2.13-0.96,4.66-0.15,6.32,0.92
				c1.63,1.05,2.79,2.55,2.84,3.67c-0.5,0.43-2.48,0.87-3.8,1.17c-3.66,0.82-8.68,1.95-11.38,6.16c-1.97,3.08-2.26,3.06-3.31,2.99
				c-1.11-0.07-2.79-0.18-5.46,0.68c-1.76,0.57-2.45,1.68-2.72,2.51c-0.87,2.65,1.31,5.67,3.83,9.16c1.17,1.62,3.09,4.28,3.2,5.31
				c-0.62,0.49-1.65,0.97-3.59,0.29c-4.88-1.72-10.01-8.56-10.46-11.2c-0.72-4.18-4.27-5.2-6.86-5.95c-0.41-0.12-0.8-0.23-1.18-0.35
				C7.67,32.41,13.94,22.91,22.56,16.31z"/>
			<path class="st109" d="M39.09,12.04v6.56c0,1.11,0.9,2.01,2.01,2.01c1.11,0,2.01-0.9,2.01-2.01v-6.56c0-1.11-0.9-2.01-2.01-2.01
				C39.98,10.03,39.09,10.93,39.09,12.04z"/>
			<path class="st109" d="M44.77,12.04v9.56c0,1.11,0.9,2.01,2.01,2.01c1.11,0,2.01-0.9,2.01-2.01v-9.56c0-1.11-0.9-2.01-2.01-2.01
				C45.67,10.03,44.77,10.93,44.77,12.04z"/>
			<path class="st109" d="M54.74,26.74V12.04c0-1.11-0.9-2.01-2.01-2.01c-1.11,0-2.01,0.9-2.01,2.01v14.71
				c0,1.11,0.9,2.01,2.01,2.01C53.84,28.75,54.74,27.85,54.74,26.74z"/>
			<path class="st109" d="M49.1,87.22c1.11,0,2.01-0.9,2.01-2.01s-0.9-2.01-2.01-2.01h-9.53c-1.11,0-2.01,0.9-2.01,2.01
				s0.9,2.01,2.01,2.01H49.1z"/>
			<path class="st109" d="M55.89,90.54c0-1.11-0.9-2.01-2.01-2.01h-7.96c-1.11,0-2.01,0.9-2.01,2.01c0,1.11,0.9,2.01,2.01,2.01h7.96
				C54.99,92.55,55.89,91.65,55.89,90.54z"/>
			<path class="st109" d="M40.58,97.87h7.96c1.11,0,2.01-0.9,2.01-2.01c0-1.11-0.9-2.01-2.01-2.01h-7.96c-1.11,0-2.01,0.9-2.01,2.01
				C38.57,96.97,39.47,97.87,40.58,97.87z"/>
			<path class="st109" d="M67.77,18.2v21.22H45.65c-1.11,0-2.01,0.9-2.01,2.01c0,1.11,0.9,2.01,2.01,2.01h24.13
				c1.11,0,2.01-0.9,2.01-2.01V18.25c2.06-0.78,3.53-2.77,3.53-5.1c0-3.01-2.45-5.46-5.46-5.46c-3.01,0-5.46,2.45-5.46,5.46
				C64.39,15.43,65.79,17.38,67.77,18.2z M69.85,11.16c1.1,0,1.99,0.89,1.99,1.99s-0.89,1.99-1.99,1.99c-1.1,0-1.99-0.89-1.99-1.99
				S68.75,11.16,69.85,11.16z"/>
			<path class="st109" d="M91.23,40.78c-0.03,0.14-0.05,0.28-0.05,0.42v7.5H38.29c-1.11,0-2.01,0.9-2.01,2.01
				c0,1.11,0.9,2.01,2.01,2.01h54.9c1.11,0,2.01-0.9,2.01-2.01v-9.51c0-0.13-0.01-0.26-0.04-0.38c2.07-0.78,3.56-2.77,3.56-5.11
				c0-3.01-2.45-5.46-5.46-5.46c-3.01,0-5.46,2.45-5.46,5.46C87.79,38.01,89.22,39.98,91.23,40.78z M93.25,33.72
				c1.1,0,1.99,0.89,1.99,1.99c0,1.1-0.89,1.99-1.99,1.99c-1.1,0-1.99-0.89-1.99-1.99C91.26,34.61,92.15,33.72,93.25,33.72z"/>
			<path class="st109" d="M95.8,54.74c-2.23,0-4.15,1.35-5,3.27H37.2c-1.11,0-2.01,0.9-2.01,2.01s0.9,2.01,2.01,2.01h53.46
				c0.75,2.12,2.77,3.64,5.14,3.64c3.01,0,5.46-2.45,5.46-5.46C101.26,57.19,98.81,54.74,95.8,54.74z M95.8,62.19
				c-1.1,0-1.99-0.89-1.99-1.99c0-1.1,0.89-1.99,1.99-1.99c1.1,0,1.99,0.89,1.99,1.99C97.79,61.3,96.9,62.19,95.8,62.19z"/>
			<path class="st109" d="M84.82,77.02c-2.42,0-4.47,1.58-5.19,3.76h-5.2V69.7c0-1.11-0.9-2.01-2.01-2.01H45.1
				c-1.11,0-2.01,0.9-2.01,2.01c0,1.11,0.9,2.01,2.01,2.01h25.33v11.08c0,1.11,0.9,2.01,2.01,2.01h7.45
				c0.87,1.86,2.76,3.15,4.94,3.15c3.01,0,5.46-2.45,5.46-5.46C90.29,79.47,87.84,77.02,84.82,77.02z M84.82,84.48
				c-1.1,0-1.99-0.89-1.99-1.99c0-1.1,0.89-1.99,1.99-1.99s1.99,0.89,1.99,1.99C86.82,83.58,85.92,84.48,84.82,84.48z"/>
		</g>
	</g>
	<g>
		<path class="st109" d="M113.88,55.83c0-22.44,17.18-38.65,40.26-38.65c12.24,0,22.76,4.4,29.74,12.56l-9.02,8.48
			c-5.48-5.91-12.24-8.8-20.08-8.8c-15.57,0-26.84,10.95-26.84,26.41s11.27,26.41,26.84,26.41c7.84,0,14.6-2.9,20.08-8.91l9.02,8.59
			c-6.98,8.16-17.5,12.56-29.85,12.56C131.06,94.49,113.88,78.27,113.88,55.83z"/>
		<path class="st109" d="M190.54,85.47l4.83-10.84c6.01,4.83,15.57,8.27,24.8,8.27c11.7,0,16.64-4.19,16.64-9.77
			c0-16.21-44.67-5.58-44.67-33.5c0-12.13,9.66-22.44,30.28-22.44c9.02,0,18.47,2.36,25.02,6.66l-4.4,10.84
			c-6.76-3.97-14.17-5.91-20.72-5.91c-11.6,0-16.32,4.51-16.32,10.2c0,16,44.56,5.58,44.56,33.18c0,12.03-9.77,22.33-30.39,22.33
			C208.47,94.49,196.77,90.84,190.54,85.47z"/>
		<path class="st109" d="M259.05,55.83c0-22.23,17.18-38.65,40.48-38.65c23.3,0,40.48,16.32,40.48,38.65s-17.18,38.65-40.48,38.65
			C276.22,94.49,259.05,78.06,259.05,55.83z M325.94,55.83c0-15.35-11.27-26.41-26.41-26.41s-26.41,11.06-26.41,26.41
			c0,15.35,11.27,26.41,26.41,26.41S325.94,71.19,325.94,55.83z"/>
		<path class="st109" d="M368.78,29.96v22.87h36.29v11.81h-36.29v28.78h-13.96V18.25h54.87v11.7H368.78z"/>
		<path class="st109" d="M439,30.06h-24.91V18.25h63.78v11.81h-24.91v47.87H439V30.06z"/>
	</g>
</g>
</svg>
